<?xml version="1.0" encoding="UTF-8"?>
<svg version="1.1" xmlns="http://www.w3.org/2000/svg" width="2480" height="3508">
<path d="M0 0 C2.81652254 0.00564856 5.63303905 0.0084638 8.44956589 0.0110817 C34.86997628 0.04677178 61.17589998 0.32797715 87.47901535 3.06158829 C90.11571435 3.33427864 92.75344736 3.59484668 95.39149094 3.85419083 C120.73836715 6.37157035 145.89097451 9.80688609 170.95887375 14.31805801 C171.64997238 14.44098221 172.34107101 14.5639064 173.05311203 14.69055557 C239.91753034 26.59924622 305.60711878 46.42701677 367.95887375 73.31805801 C369.05892746 73.79033829 370.15898117 74.26261856 371.29236984 74.74921036 C405.9454696 89.69127865 439.8098553 106.46503733 472.26551437 125.72528458 C474.66110611 127.141967 477.06446027 128.5433342 479.47449875 129.93524551 C497.84051974 140.56197673 515.55183358 152.19468345 532.95887375 164.31805801 C533.66286301 164.80451797 534.36685226 165.29097794 535.09217453 165.79217911 C546.533742 173.69886642 557.61197274 182.04521399 568.63074875 190.52899551 C570.60954422 192.04961351 572.59401571 193.5619728 574.58387375 195.06805801 C583.57924233 201.90453814 592.27377048 209.09378066 600.95887375 216.31805801 C604.5587783 214.59463839 607.44357644 212.48452656 610.58387375 210.00555801 C618.23585301 204.02901576 626.10365834 198.36416737 634.00281906 192.72040176 C635.5861169 191.58529658 637.16060835 190.43791436 638.73231125 189.28680801 C646.44159934 183.70875657 654.68665665 179.00094994 662.95887375 174.31805801 C664.07383224 173.68553116 664.07383224 173.68553116 665.21131516 173.04022598 C686.94005652 160.82107136 686.94005652 160.82107136 698.01356125 162.60712051 C701.62093913 163.9254795 702.93945385 166.09960755 704.95887375 169.31805801 C706.07353203 172.43162864 705.96729449 174.18987286 704.77137375 177.25555801 C704.53031906 177.90395645 704.28926437 178.55235489 704.040905 179.22040176 C698.14203437 190.65611846 684.38496101 197.44504881 673.61512375 203.62665176 C659.49756023 211.73577541 645.87384206 220.50513235 632.70936203 230.08026505 C631.00011 231.28889932 629.2541854 232.41262061 627.4862175 233.53290176 C626.65219406 234.12200333 625.81817062 234.71110489 624.95887375 235.31805801 C624.72429833 237.37080147 624.72429833 237.37080147 626.18153 238.55243301 C627.09225266 239.30266739 627.09225266 239.30266739 628.02137375 240.06805801 C640.82504975 250.92121902 652.67009164 262.86791841 664.51404953 274.7428627 C666.98018717 277.21441826 669.45170479 279.68050505 671.9237175 282.14618301 C673.51909072 283.74221624 675.11415414 285.33855921 676.70887375 286.93524551 C677.43501877 287.6593663 678.16116379 288.38348709 678.9093132 289.12955093 C682.90540194 293.14384707 686.73444352 297.24942292 690.425457 301.54652786 C692.81922549 304.31200767 695.33199969 306.96329514 697.83387375 309.63055801 C702.27352668 314.40216696 706.47546516 319.29973791 710.55653 324.38446426 C713.40849552 327.86710834 716.36744495 331.24553219 719.33387375 334.63055801 C725.47165621 341.66892603 731.27627754 348.90966246 736.95887375 356.31805801 C737.86210373 357.49029922 737.86210373 357.49029922 738.78358078 358.68622208 C743.54503803 364.86959396 748.26692711 371.08178928 752.95887375 377.31805801 C753.75019699 378.36727432 753.75019699 378.36727432 754.55750656 379.43768692 C771.98749243 402.67959574 788.15725748 427.32825506 802.95887375 452.31805801 C803.53331223 453.28727188 804.1077507 454.25648575 804.69959641 455.25506973 C850.03806541 532.11766118 884.32771571 614.45141732 932.197155 859.16571426 C932.2604097 859.9122023 932.3236644 860.65869034 932.38883591 861.42779922 C933.61236654 876.6815659 934.12394484 891.92169995 934.16199875 907.22040176 C934.1690219 908.97932332 934.17610871 910.73824462 934.18325424 912.49716568 C934.20264092 918.08330023 934.2076881 923.66939321 934.20887375 929.25555801 C934.20931561 930.20753445 934.20975746 931.15951088 934.21021271 932.14033508 C934.21694326 959.79208988 934.07665847 987.30630339 931.21534348 1014.83819962 C930.94265312 1017.47489862 930.68208509 1020.11263163 930.42274094 1022.7506752 C927.90536142 1048.09755142 924.47004568 1073.25015877 919.95887375 1098.31805801 C919.83594955 1099.00915665 919.71302536 1099.70025528 919.58637619 1100.4122963 C907.67898411 1167.26942346 887.86651228 1232.97891134 860.95887375 1295.31805801 C860.47595871 1296.43938126 859.99304367 1297.5607045 859.49549484 1298.71600723 C844.51084439 1333.343308 827.84071159 1367.26906261 808.51942062 1399.68915176 C807.11390658 1402.05688881 805.72645 1404.43363385 804.34949875 1406.81805801 C778.30359818 1451.85521308 747.11452551 1494.03770216 713.40906906 1533.61346817 C711.94084336 1535.33925131 710.47713842 1537.06880074 709.01356125 1538.79852676 C702.75628012 1546.17142335 696.33361009 1553.35175351 689.72327805 1560.41009903 C688.40828404 1561.832083 687.1072436 1563.26699516 685.81361008 1564.70843887 C677.61841675 1573.79370828 668.9942303 1582.4347024 660.33314133 1591.07416153 C657.76256064 1593.63935265 655.19740782 1596.20988533 652.63270187 1598.78094864 C650.97742366 1600.43556645 649.3218355 1602.08987426 647.665905 1603.74383926 C646.91049927 1604.50126923 646.15509354 1605.25869919 645.37679672 1606.03908157 C641.28216443 1610.11590332 637.10400195 1614.03242024 632.71900558 1617.79603958 C629.95639205 1620.18492241 627.30971566 1622.69486179 624.64637375 1625.19305801 C619.8747648 1629.63271095 614.97719385 1633.83464943 609.8924675 1637.91571426 C606.40982342 1640.76767979 603.03139957 1643.72662922 599.64637375 1646.69305801 C592.60800573 1652.83084048 585.3672693 1658.63546181 577.95887375 1664.31805801 C576.78663254 1665.22128799 576.78663254 1665.22128799 575.59070969 1666.14276505 C569.40734949 1670.9042133 563.19646905 1675.62788459 556.95887375 1680.31805801 C556.24344406 1680.85624161 555.52801437 1681.3944252 554.790905 1681.94891739 C518.94646119 1708.74558573 480.40571872 1732.27034859 440.95887375 1753.31805801 C440.05910812 1753.79952286 439.1593425 1754.2809877 438.23231125 1754.77704239 C365.08709407 1793.79824443 286.80143573 1822.12893403 170.95887375 1847.31805801 C170.23540756 1847.44934097 169.51194138 1847.58062393 168.76655197 1847.71588516 C143.5226994 1852.26786079 118.15091496 1855.54446273 92.62623215 1858.05377579 C90.11292062 1858.30279503 87.60083949 1858.56186689 85.08875656 1858.82294083 C30.92050369 1864.33607161 -26.41115306 1864.20220169 -80.56126785 1858.57452774 C-83.19796686 1858.30183738 -85.83569987 1858.04126935 -88.47374344 1857.7819252 C-113.82061966 1855.26454568 -138.97322701 1851.82922994 -164.04112625 1847.31805801 C-164.73222488 1847.19513382 -165.42332352 1847.07220963 -166.13536453 1846.94556046 C-232.9924917 1835.03816837 -298.70197958 1815.22569655 -361.04112625 1788.31805801 C-362.16244949 1787.83514297 -363.28377274 1787.35222794 -364.43907547 1786.85467911 C-399.06637624 1771.87002865 -432.99213085 1755.19989585 -465.41222 1735.87860489 C-467.77995705 1734.47309085 -470.15670208 1733.08563427 -472.54112625 1731.70868301 C-490.91411301 1721.08264338 -508.62949424 1709.44463062 -526.04112625 1697.31805801 C-527.09711014 1696.58836807 -527.09711014 1696.58836807 -528.17442703 1695.84393692 C-539.60648472 1687.94382133 -550.67661712 1679.60532695 -561.68663406 1671.12909317 C-563.74619136 1669.54491689 -565.81004679 1667.96669726 -567.87706375 1666.39227676 C-578.64199516 1658.18207764 -589.03211869 1649.54420734 -599.33653641 1640.76825333 C-601.06231954 1639.30002763 -602.79186897 1637.83632269 -604.521595 1636.37274551 C-611.89449158 1630.11546438 -619.07482175 1623.69279436 -626.13316727 1617.08246231 C-627.55515124 1615.7674683 -628.9900634 1614.46642787 -630.43150711 1613.17279434 C-639.51677652 1604.97760101 -648.15777063 1596.35341457 -656.79722977 1587.69232559 C-659.36242088 1585.1217449 -661.93295357 1582.55659209 -664.50401688 1579.99188614 C-666.15863469 1578.33660793 -667.8129425 1576.68101976 -669.4669075 1575.02508926 C-670.22433746 1574.26968353 -670.98176743 1573.5142778 -671.76214981 1572.73598099 C-675.83897156 1568.6413487 -679.75548848 1564.46318622 -683.51910782 1560.07818985 C-685.90799065 1557.31557631 -688.41793003 1554.66889993 -690.91612625 1552.00555801 C-695.35577918 1547.23394906 -699.55771767 1542.33637811 -703.6387825 1537.25165176 C-706.49074803 1533.76900768 -709.44969745 1530.39058383 -712.41612625 1527.00555801 C-718.55390872 1519.96719 -724.35853004 1512.72645357 -730.04112625 1505.31805801 C-730.64327957 1504.53656387 -731.24543289 1503.75506973 -731.86583328 1502.94989395 C-736.62729053 1496.76652207 -741.34917962 1490.55432675 -746.04112625 1484.31805801 C-746.56867508 1483.61858047 -747.09622391 1482.91910294 -747.63975906 1482.19842911 C-765.06974493 1458.95652028 -781.23950998 1434.30786097 -796.04112625 1409.31805801 C-796.61556473 1408.34884415 -797.1900032 1407.37963028 -797.78184891 1406.3810463 C-840.56685817 1333.8473512 -873.82181167 1256.26563978 -925.2794075 1002.47040176 C-925.3426622 1001.72391373 -925.4059169 1000.97742569 -925.47108841 1000.2083168 C-926.69461904 984.95455013 -927.20619734 969.71441608 -927.24425125 954.41571426 C-927.2512744 952.65679271 -927.25836121 950.89787141 -927.26550674 949.13895035 C-927.28489342 943.5528158 -927.2899406 937.96672282 -927.29112625 932.38055801 C-927.29156811 931.42858158 -927.29200996 930.47660515 -927.29246521 929.49578094 C-927.29919576 901.84402615 -927.15891097 874.32981264 -924.29759598 846.79791641 C-924.02490562 844.16121741 -923.76433759 841.5234844 -923.50499344 838.88544083 C-920.9877397 813.53983103 -917.56229125 788.38330652 -913.04112625 763.31805801 C-912.91584549 762.61753311 -912.79056473 761.91700821 -912.66148758 761.19525528 C-905.94540052 723.74468024 -896.71303975 686.52945794 -885.04112625 650.31805801 C-884.59377469 648.919648 -884.14651259 647.52120937 -883.69932938 646.12274551 C-864.8318614 587.30350307 -840.53771611 529.76688606 -809.68663406 476.19452286 C-808.0217831 473.28424481 -806.38317233 470.36064746 -804.75206375 467.43133926 C-784.90308973 431.81802948 -761.71032198 397.9615097 -736.85216141 365.6725502 C-735.26798513 363.6129929 -733.6897655 361.54913748 -732.115345 359.48212051 C-723.90514588 348.71718911 -715.26727558 338.32706557 -706.49132156 328.02264786 C-705.02309586 326.29686472 -703.55939093 324.56731529 -702.09581375 322.83758926 C-695.8404829 315.46699068 -689.42007326 308.28860593 -682.81163406 301.2326088 C-681.47630647 299.78864313 -680.15512336 298.33157854 -678.84093094 296.86835098 C-670.36497749 287.47586057 -661.39967216 278.59732069 -652.41612625 269.69305801 C-649.33774605 266.64123193 -646.26268613 263.58611493 -643.18956375 260.52899551 C-642.48552414 259.83325424 -641.78148453 259.13751297 -641.05611038 258.42068863 C-640.41098495 257.77886642 -639.76585953 257.13704422 -639.10118484 256.47577286 C-638.53257736 255.91240219 -637.96396988 255.34903152 -637.37813187 254.76858902 C-635.93558262 253.33810551 -635.93558262 253.33810551 -635.04112625 251.31805801 C-636.10653641 250.90620255 -636.10653641 250.90620255 -637.19347 250.48602676 C-645.52616228 247.0683656 -653.31674164 242.62565719 -661.0450325 238.03290176 C-663.97510032 236.3558486 -666.94148001 234.8532347 -669.97862625 233.38055801 C-675.25408921 230.78695846 -680.19396211 227.83682073 -685.1700325 224.71258926 C-690.00709016 221.69284056 -694.93647242 218.82971409 -699.85362625 215.94305801 C-709.01396763 210.54965834 -718.07833045 205.03323331 -727.04112625 199.31805801 C-727.69290848 198.90410782 -728.3446907 198.49015762 -729.01622391 198.06366348 C-740.62142977 190.68057957 -751.98664925 182.95904394 -763.3262825 175.17596817 C-765.91283609 173.40585371 -768.50656339 171.646925 -771.10362625 169.89227676 C-780.61132345 163.45767815 -789.91468265 156.82451587 -799.03331375 149.84930801 C-801.12237048 148.25609743 -803.22148481 146.67687271 -805.32237625 145.09930801 C-813.39386041 139.01576692 -821.21042514 132.73535524 -828.83018875 126.09540176 C-831.76475637 123.5405914 -834.76472134 121.07626619 -837.79112625 118.63055801 C-842.22014889 115.03400953 -846.4777672 111.28600731 -850.69737625 107.44696426 C-852.85619066 105.48604118 -855.03381579 103.55101717 -857.22862625 101.63055801 C-857.87057938 101.06852676 -858.5125325 100.50649551 -859.17393875 99.92743301 C-860.38624814 98.88251363 -861.60973377 97.85037217 -862.84581375 96.83368301 C-866.74052874 93.61405195 -870.02924318 90.1612203 -873.29893875 86.31024551 C-874.93186268 84.44300066 -876.63041764 82.72543405 -878.41612625 81.00555801 C-882.1029999 77.38408346 -885.2571391 73.4048958 -888.48643875 69.37665176 C-891.90605391 65.28252536 -895.54034527 61.4076588 -899.2313118 57.55780411 C-903.04112625 53.52927694 -903.04112625 53.52927694 -903.04112625 51.31805801 C-903.70112625 51.31805801 -904.36112625 51.31805801 -905.04112625 51.31805801 C-906.88095614 49.23171497 -908.59651587 47.14308841 -910.29112625 44.94305801 C-910.78330643 44.30980606 -911.2754866 43.67655411 -911.78258133 43.0241127 C-922.04112625 29.63913799 -922.04112625 29.63913799 -922.04112625 25.31805801 C-922.70112625 25.31805801 -923.36112625 25.31805801 -924.04112625 25.31805801 C-926.07548156 21.58840662 -927.04112625 19.6490076 -927.04112625 15.31805801 C-921.74223161 15.74101195 -918.54627678 17.71844178 -914.54112625 21.00555801 C-913.94670731 21.4830751 -913.35228836 21.96059219 -912.73985672 22.4525795 C-907.98411499 26.35752339 -903.5328581 30.54811693 -899.16612625 34.88055801 C-898.55317703 35.48794815 -897.94022781 36.09533829 -897.30870438 36.72113419 C-893.04112625 41.06053432 -893.04112625 41.06053432 -893.04112625 43.31805801 C-892.38112625 43.31805801 -891.72112625 43.31805801 -891.04112625 43.31805801 C-889.55461502 44.80864334 -889.55461502 44.80864334 -887.84288406 46.85687637 C-877.0858394 59.49947501 -865.29189139 71.2538639 -853.56016922 82.98431778 C-851.2735925 85.27310875 -848.9951935 87.56984581 -846.7169075 89.86688614 C-839.13508395 97.47837591 -831.57333116 104.76881201 -823.04112625 111.31805801 C-821.92761795 112.21319107 -821.92761795 112.21319107 -820.79161453 113.12640762 C-814.82648084 117.89174958 -808.53517693 122.11496768 -802.16612625 126.31805801 C-801.15421219 126.99094864 -800.14229813 127.66383926 -799.09972 128.35712051 C-788.59390046 135.32512886 -777.92800673 142.02764365 -767.22862625 148.69305801 C-760.74457954 152.73761624 -754.26849483 156.78954599 -747.85362625 160.94305801 C-732.37056857 170.94058256 -716.59907791 180.46155173 -700.69151688 189.76581192 C-698.12211924 191.2706231 -695.55790653 192.78395944 -692.99425125 194.29852676 C-684.46213443 199.3166147 -675.8661053 204.02816637 -666.97081375 208.36883926 C-663.63238465 210.00488512 -660.36139474 211.74522558 -657.09410477 213.51825333 C-649.35571282 217.71091758 -641.47852374 221.52359804 -633.47862625 225.19305801 C-632.46735672 225.65752335 -631.45608719 226.12198868 -630.41417313 226.60052872 C-625.01883991 229.05038642 -619.61818756 231.31535586 -614.04112625 233.31805801 C-613.44686844 232.77278458 -612.85261063 232.22751114 -612.240345 231.66571426 C-606.93159288 226.83582314 -601.51663193 222.19685841 -595.9356575 217.68524551 C-593.42802325 215.6344677 -590.96091521 213.54452004 -588.50523758 211.43207169 C-581.03877734 205.02323571 -573.2752019 199.05423089 -565.42442703 193.12616348 C-562.8900908 191.20347406 -560.36895673 189.26439036 -557.84972 187.32196426 C-548.27498813 179.95039193 -538.65036045 172.74263966 -528.60167313 166.02997208 C-526.05655944 164.32837624 -523.51742884 162.61804348 -520.97882462 160.90675735 C-448.3117571 111.95223315 -370.19480412 72.7902012 -91.41612625 4.13055801 C-90.68273026 4.05165329 -89.94933426 3.97274857 -89.19371414 3.89145279 C-59.49716401 0.73328677 -29.8391814 -0.060819 0 0 Z M-404.04112625 125.31805801 C-404.96405472 125.77952225 -404.96405472 125.77952225 -405.9056282 126.25030899 C-421.65726738 134.14302268 -437.01258674 142.57720222 -452.14464188 151.59784317 C-455.0544966 153.32599863 -457.97548603 155.03367572 -460.90050125 156.73602676 C-471.5282492 162.93472003 -481.88618969 169.37502767 -492.04112625 176.31805801 C-493.93569937 177.56996725 -495.83150141 178.820019 -497.72862625 180.06805801 C-512.15959621 189.70165304 -526.24906032 199.79283046 -540.04112625 210.31805801 C-541.14647173 211.15546033 -542.25193597 211.99270593 -543.3575325 212.82977676 C-555.21692645 221.844073 -566.76615598 231.26362675 -578.05675125 240.97992325 C-581.83347561 244.21423269 -581.83347561 244.21423269 -584.04112625 245.31805801 C-584.04112625 245.97805801 -584.04112625 246.63805801 -584.04112625 247.31805801 C-552.75474134 260.71428028 -521.07192861 273.17217817 -489.3275032 285.43463516 C-487.17889502 286.26482616 -485.03085279 287.09646499 -482.88292313 287.92840958 C-465.07643637 294.81795789 -447.13433014 301.22296075 -429.04112625 307.31805801 C-427.84052567 307.72330704 -426.63992508 308.12855606 -425.40294266 308.54608536 C-408.56156541 314.22190863 -391.67475588 319.66183732 -374.64342117 324.73895645 C-369.2024799 326.36227108 -363.76982632 328.01113313 -358.3419075 329.67743301 C-343.37635517 334.26500668 -328.39667681 338.66921097 -313.25987625 342.66571426 C-306.8357497 344.36198379 -300.43700426 346.1435645 -294.04112625 347.94305801 C-293.00302811 348.23503067 -291.96492996 348.52700333 -290.8953743 348.82782364 C-288.88580349 349.3932408 -286.87628043 349.95882771 -284.86680984 350.52460098 C-279.96641131 351.9006417 -275.06069921 353.25748378 -270.15465164 354.61322403 C-265.75161408 355.83293992 -261.36382198 357.09781369 -256.97862625 358.38055801 C-251.22458319 360.03592138 -245.4368933 361.42029858 -239.60338211 362.75677872 C-234.70500296 363.89193452 -229.87344405 365.18073534 -225.04112625 366.56805801 C-212.83290959 370.04704772 -200.46207136 372.90838231 -188.11842728 375.86032486 C-183.96042196 376.85512665 -179.80590087 377.86273229 -175.6544075 378.88446426 C-158.80162036 383.01722065 -141.84811191 386.65264929 -124.88145828 390.28143692 C-117.77050539 391.80302734 -110.66289413 393.34006731 -103.55534744 394.87747574 C-101.22764766 395.38076961 -98.89978168 395.8832889 -96.57188797 396.38568497 C-89.32236667 397.95130771 -82.07523557 399.52658587 -74.834095 401.13055801 C-50.75642084 406.45897047 -26.60203342 411.36922875 -2.36290359 415.90961075 C2.6766888 416.8604867 7.69373419 417.89085936 12.70814133 418.96625137 C25.41456032 421.68440835 38.17535071 424.05704481 50.95887375 426.38055801 C51.86815628 426.54632339 52.77743881 426.71208878 53.71427536 426.88287735 C67.11552112 429.32185665 80.53848936 431.61144601 93.978405 433.82675552 C98.7848872 434.61905931 103.59060549 435.41596838 108.39637375 436.21258926 C109.33461487 436.36808243 110.27285599 436.52357559 111.23952866 436.68378067 C129.51418394 439.71360583 147.77945179 442.78405759 166.02137375 446.00555801 C178.71321772 448.24691896 191.41248053 450.39529599 204.1424675 452.41131973 C211.13523497 453.52388697 218.11686518 454.68069109 225.09168625 455.90008926 C251.24372411 460.46618701 277.46048572 464.45360139 303.73231125 468.26678848 C310.01721923 469.17957505 316.30062198 470.10235094 322.58366013 471.02791214 C327.68563608 471.77927652 332.78799898 472.52798839 337.89045334 473.27609634 C340.34031337 473.63558161 342.79006248 473.9958237 345.2396965 474.35684586 C348.63787303 474.85713701 352.03657066 475.3537229 355.43543625 475.84930801 C356.44634323 475.99888458 357.45725021 476.14846115 358.49879074 476.30257034 C359.42743942 476.43723206 360.3560881 476.57189377 361.31287766 476.71063614 C362.11818924 476.82862564 362.92350082 476.94661514 363.75321579 477.06818008 C366.2513418 477.3931043 366.2513418 477.3931043 369.95887375 477.31805801 C370.36090012 476.49305801 370.76292648 475.66805801 371.17713547 474.81805801 C385.8056163 444.90166696 385.8056163 444.90166696 393.79822922 433.04950333 C395.0142741 431.23541198 396.19350307 429.40081723 397.36903 427.56024551 C402.92063693 418.94244676 409.05061813 410.92253021 415.5643425 403.01239395 C416.82807897 401.47697183 418.0815806 399.93314002 419.33387375 398.38837051 C423.77444882 392.91694766 428.30764405 387.52859687 432.86878586 382.15790176 C438.05889442 376.03842491 443.13493238 369.82674269 448.165905 363.57587051 C452.807472 357.83691027 457.6163938 352.31127697 462.61512375 346.88055801 C464.64501042 344.66121526 466.62382873 342.41133767 468.58387375 340.13055801 C471.4937468 336.77669025 474.57769931 333.65160574 477.77137375 330.56805801 C479.64606989 328.63979913 481.39665386 326.67115306 483.15028 324.63446426 C487.2013696 319.97241897 491.51954656 315.61022405 495.89637375 311.25555801 C496.65627609 310.49178848 497.41617844 309.72801895 498.19910812 308.94110489 C502.41751393 304.72990388 506.72952178 300.70140844 511.24622726 296.81244278 C513.24618134 295.06736524 515.11557987 293.22718382 516.95887375 291.31805801 C521.26919998 286.95780522 525.83527485 282.98029492 530.49940109 279.00506973 C532.2574506 277.50607982 534.01464821 276.00609932 535.77137375 274.50555801 C536.37715256 273.98856339 536.98293137 273.47156876 537.60706711 272.93890762 C541.34882899 269.73375307 545.01964254 266.46631939 548.64637375 263.13055801 C553.0222462 259.11346866 557.55399191 255.35345846 562.17762375 251.62665176 C566.12841501 248.34727306 569.88496078 244.8779859 573.64637375 241.38446426 C575.95887375 239.31805801 575.95887375 239.31805801 578.95887375 237.31805801 C578.95887375 236.65805801 578.95887375 235.99805801 578.95887375 235.31805801 C576.97429404 233.61174757 574.98049207 232.02025095 572.89637375 230.44305801 C571.59624977 229.44259332 570.29679151 228.44126302 568.99793625 227.43915176 C567.98908371 226.66353897 567.98908371 226.66353897 566.95985031 225.87225723 C564.46986844 223.93823764 562.0220468 221.95562411 559.57484055 219.96796036 C512.23409334 181.58010659 459.28203241 149.70015932 404.95887375 122.31805801 C404.36737534 122.01941849 403.77587692 121.72077896 403.16645432 121.41308975 C346.1807709 92.68056973 285.79243258 70.95738389 223.95887375 55.31805801 C223.23955673 55.13607864 222.52023972 54.95409927 221.77912521 54.76660538 C139.71320626 34.09351129 54.80150641 25.75932716 -404.04112625 125.31805801 Z M594.95887375 258.31805801 C594.95887375 258.97805801 594.95887375 259.63805801 594.95887375 260.31805801 C594.29887375 260.31805801 593.63887375 260.31805801 592.95887375 260.31805801 C592.95887375 260.97805801 592.95887375 261.63805801 592.95887375 262.31805801 C592.29887375 262.31805801 591.63887375 262.31805801 590.95887375 262.31805801 C589.41057194 263.83180431 589.41057194 263.83180431 587.81043625 265.81415176 C584.12551715 270.14750236 580.25916299 274.26563193 576.33387375 278.38055801 C570.55353961 284.47776993 564.94105822 290.68263121 559.48084641 297.06756973 C556.29681351 300.78941238 553.04431851 304.41867203 549.70887375 308.00555801 C545.56381546 312.52440578 541.9192343 317.2842045 538.2987175 322.22821426 C535.84020872 325.47475925 533.24601056 328.55187729 530.58387375 331.63055801 C525.15799468 337.94372345 520.22132728 344.54815331 515.38563156 351.32049942 C513.91419802 353.38060709 512.43266252 355.43322294 510.95106125 357.48602676 C498.38754535 374.98082823 487.97667247 393.25223166 477.95887375 412.31805801 C477.55394699 413.08118301 477.14902023 413.84430801 476.73182297 414.63055801 C469.94045161 427.46740946 464.49368288 440.90433377 458.95887375 454.31805801 C458.56071457 455.27454239 458.16255539 456.23102676 457.75233078 457.21649551 C453.49995539 467.44711344 449.66578615 477.56164295 446.95887375 488.31805801 C449.47066983 489.57395605 451.64947198 489.7640191 454.44080734 490.13080215 C456.18752228 490.362705 456.18752228 490.362705 457.96952438 490.59929276 C459.25249405 490.76558685 460.53546371 490.93188095 461.85731125 491.10321426 C463.2142221 491.28135002 464.57110419 491.45970499 465.92795944 491.6382637 C469.62170504 492.12298182 473.31614046 492.60223571 477.01079941 493.07993698 C479.33887546 493.38120527 481.6667764 493.68379568 483.99464035 493.98669815 C509.71297119 497.33022363 535.45475884 500.44192378 561.21644211 503.43085098 C564.02252136 503.75646325 566.82859143 504.08215445 569.634655 504.40790176 C570.66499139 504.52743713 570.66499139 504.52743713 571.71614265 504.64938736 C585.25751547 506.22173995 598.78758359 507.8810345 612.31599045 509.56128311 C648.30496761 514.0270059 684.25292679 518.3370697 720.43757248 520.85736465 C725.08634683 521.18121895 729.73185377 521.53268336 734.3768425 521.90790176 C749.49187898 523.10713592 764.57514903 523.67445861 779.72799301 524.04610062 C789.48371476 524.28635064 799.21938734 524.70690199 808.95887375 525.31805801 C807.28835168 519.47123076 804.52533419 514.29953595 801.70887375 508.94305801 C800.91694626 507.43207535 800.91694626 507.43207535 800.10902023 505.89056778 C794.61332139 495.50748184 788.70737619 485.37901985 782.71131516 475.27899551 C780.9724407 472.34098083 779.25049926 469.3936644 777.5330925 466.44305801 C771.33581035 455.82133908 764.89858179 445.46813535 757.95887375 435.31805801 C756.70696451 433.4234849 755.45691276 431.52768285 754.20887375 429.63055801 C744.57527873 415.19958805 734.4841013 401.11012395 723.95887375 387.31805801 C723.12147143 386.21271253 722.28422584 385.1072483 721.447155 384.00165176 C712.5922947 372.35201503 703.33044509 361.02005655 693.83094406 349.8913002 C691.07990168 346.66476901 688.41081765 343.38607351 685.77137375 340.06805801 C681.12002105 334.34396091 676.07028319 329.01794707 670.98157883 323.68231583 C667.61496221 320.15175014 664.30960987 316.59083547 661.08778 312.92743301 C654.46045739 305.53049959 647.36826926 298.57866695 640.33851242 291.56732559 C637.89505453 289.1292417 635.45700568 286.68584013 633.01942062 284.24188614 C631.44617354 282.66929969 629.87261638 281.09702337 628.2987175 279.52508926 C627.22181908 278.4451545 627.22181908 278.4451545 626.12316513 277.34340286 C622.11426696 273.35278976 618.01273889 269.52949989 613.72352219 265.84115982 C610.12821761 262.7379837 606.67116616 259.48029764 603.18153 256.25946426 C599.40679411 252.96237509 598.46315245 255.26304581 594.95887375 258.31805801 Z M-613.61143875 272.20868301 C-614.1748497 272.73907181 -614.73826065 273.2694606 -615.31874466 273.81592178 C-622.53668071 280.65859562 -629.56830193 287.69554517 -636.59093094 294.73749161 C-638.92996106 297.08192478 -641.27434822 299.42090673 -643.61925125 301.75946426 C-645.13259312 303.27346636 -646.64562506 304.78777831 -648.15831375 306.30243301 C-648.84698532 306.98908035 -649.53565689 307.67572769 -650.2451973 308.38318253 C-654.15182733 312.30852059 -657.88426994 316.33382472 -661.49480057 320.53361893 C-663.89408268 323.30235829 -666.4100882 325.95885588 -668.91612625 328.63055801 C-673.35577918 333.40216696 -677.55771767 338.29973791 -681.6387825 343.38446426 C-684.49073833 346.8670965 -687.44945627 350.24575516 -690.41612625 353.63055801 C-696.09478053 360.1341185 -701.49395864 366.81220153 -706.75889969 373.65350723 C-707.98516871 375.24541549 -709.21998145 376.83073144 -710.45518875 378.41571426 C-721.80293833 393.03472064 -732.69633928 407.97322463 -743.04112625 423.31805801 C-743.45282059 423.92536758 -743.86451492 424.53267715 -744.28868484 425.15839005 C-766.87013369 458.48950286 -786.92441711 493.37644586 -805.04112625 529.31805801 C-805.33976578 529.90955643 -805.6384053 530.50105484 -805.94609451 531.11047745 C-842.11417677 602.84323477 -867.8767968 680.30141901 -898.04112625 883.31805801 C-898.10042313 884.31530899 -898.15972 885.31255997 -898.22081375 886.34003067 C-903.07326194 970.37692361 -894.57560953 1055.83822888 -853.04112625 1216.31805801 C-852.65988602 1217.48240372 -852.27864578 1218.64674942 -851.88585281 1219.84637833 C-838.43145367 1260.59640484 -821.21714568 1299.96601916 -802.04112625 1338.31805801 C-801.73241592 1338.93547867 -801.4237056 1339.55289932 -801.10564041 1340.18902969 C-793.21403698 1355.93849599 -784.78073262 1371.29161441 -775.76134109 1386.42157364 C-774.03318563 1389.33142836 -772.32550854 1392.25241779 -770.6231575 1395.17743301 C-764.42446424 1405.80518097 -757.9841566 1416.16312145 -751.04112625 1426.31805801 C-749.78921701 1428.21263113 -748.53916526 1430.10843317 -747.29112625 1432.00555801 C-737.65753123 1446.43652798 -727.56635381 1460.52599208 -717.04112625 1474.31805801 C-716.20372393 1475.4234035 -715.36647834 1476.52886773 -714.5294075 1477.63446426 C-705.67454721 1489.284101 -696.41269759 1500.61605948 -686.91319656 1511.74481583 C-684.16215418 1514.97134701 -681.49307015 1518.25004252 -678.85362625 1521.56805801 C-674.20227355 1527.29215512 -669.15253569 1532.61816896 -664.06383133 1537.9538002 C-660.69721471 1541.48436589 -657.39186237 1545.04528056 -654.1700325 1548.70868301 C-647.54270989 1556.10561643 -640.45052176 1563.05744908 -633.42076492 1570.06879044 C-630.97730703 1572.50687433 -628.53925818 1574.9502759 -626.10167313 1577.39422989 C-624.52842605 1578.96681634 -622.95486888 1580.53909266 -621.38097 1582.11102676 C-620.66303772 1582.83098328 -619.94510544 1583.55093979 -619.20541763 1584.29271317 C-615.19969816 1588.28016208 -611.10184252 1592.09984424 -606.81416702 1595.78313065 C-604.04830651 1598.17754541 -601.39640868 1600.69069662 -598.72862625 1603.19305801 C-593.9570173 1607.63271095 -589.05944635 1611.83464943 -583.97472 1615.91571426 C-580.49208777 1618.76767009 -577.11342911 1621.72638803 -573.72862625 1624.69305801 C-567.22506577 1630.3717123 -560.54698274 1635.7708904 -553.70567703 1641.03583145 C-552.11376877 1642.26210047 -550.52845283 1643.49691322 -548.94347 1644.73212051 C-534.32446363 1656.07987009 -519.38595963 1666.97327104 -504.04112625 1677.31805801 C-503.43381668 1677.72975235 -502.82650711 1678.14144669 -502.20079422 1678.56561661 C-468.86968141 1701.14706545 -433.9827384 1721.20134887 -398.04112625 1739.31805801 C-397.44962784 1739.61669754 -396.85812943 1739.91533707 -396.24870682 1740.22302628 C-339.26506437 1768.95451722 -278.88737551 1790.72383353 -217.04112625 1806.31805801 C-216.32501175 1806.49896988 -215.60889725 1806.67988174 -214.87108231 1806.86627579 C-158.82690418 1820.97688149 -101.71324101 1828.95476221 -44.04112625 1832.31805801 C-42.5708699 1832.40700333 -42.5708699 1832.40700333 -41.07091141 1832.49774551 C-10.52715361 1834.27299246 20.42005255 1834.03682584 50.95887375 1832.31805801 C49.65436043 1828.88504807 48.15857244 1825.7267511 46.34168625 1822.53680801 C45.82324142 1821.62302383 45.3047966 1820.70923965 44.77064133 1819.76776505 C44.21400803 1818.79436172 43.65737473 1817.8209584 43.08387375 1816.81805801 C42.50597092 1815.80211563 41.92806808 1814.78617325 41.33265305 1813.73944473 C40.13221364 1811.6303746 38.93029434 1809.52214614 37.72694016 1807.4147377 C36.07557715 1804.52245818 34.42862527 1801.62771986 32.7830925 1798.73212051 C30.31422397 1794.39094724 27.82960876 1790.05903804 25.33924484 1785.73016739 C24.03957294 1783.45907463 22.75724343 1781.17905113 21.478405 1778.89618301 C16.8240426 1770.67300165 11.69152746 1763.07665271 5.98817062 1755.54608536 C-1.16678069 1746.00043546 -7.6655992 1736.01283847 -14.22569656 1726.05438614 C-18.70554867 1719.262757 -23.25310345 1712.57186927 -28.084095 1706.02215958 C-31.82697266 1700.8504888 -35.32774755 1695.51385778 -38.85362625 1690.19305801 C-39.65197582 1688.99175714 -40.45039791 1687.79050445 -41.24888992 1686.58929825 C-47.82379427 1676.68789656 -54.29074575 1666.71942594 -60.71055984 1656.7169838 C-62.48402087 1653.956807 -64.26233532 1651.19980213 -66.04112625 1648.44305801 C-66.59389236 1647.57946671 -67.14665848 1646.7158754 -67.71617508 1645.82611465 C-68.23590897 1645.02165909 -68.75564285 1644.21720352 -69.29112625 1643.38837051 C-69.7500325 1642.67439102 -70.20893875 1641.96041153 -70.68175125 1641.2247963 C-71.99662338 1639.38048033 -73.39196972 1637.86474857 -75.04112625 1636.31805801 C-75.70757156 1636.93551895 -76.37401688 1637.55297989 -77.0606575 1638.18915176 C-81.74794655 1642.49621317 -86.44930826 1646.7064368 -91.41612625 1650.69305801 C-96.42174328 1654.72355484 -101.1310215 1659.01292395 -105.80235672 1663.42108536 C-109.84532701 1667.22015839 -109.84532701 1667.22015839 -112.04112625 1668.31805801 C-112.04112625 1668.97805801 -112.04112625 1669.63805801 -112.04112625 1670.31805801 C-112.634095 1670.59335342 -113.22706375 1670.86864883 -113.83800125 1671.15228653 C-115.9375453 1672.26324872 -117.50929975 1673.41319569 -119.29112625 1674.97040176 C-119.89360184 1675.49424454 -120.49607742 1676.01808731 -121.11680984 1676.55780411 C-121.75183426 1677.1180629 -122.38685867 1677.67832169 -123.04112625 1678.25555801 C-123.70322098 1678.83386368 -124.3653157 1679.41216934 -125.04747391 1680.00799942 C-129.2285403 1683.67484386 -133.34052951 1687.40971919 -137.41612625 1691.19305801 C-141.59615113 1695.07289141 -145.87787977 1698.63052644 -150.49425125 1701.97821426 C-151.00472 1702.4203627 -151.51518875 1702.86251114 -152.04112625 1703.31805801 C-152.04112625 1703.97805801 -152.04112625 1704.63805801 -152.04112625 1705.31805801 C-152.87643875 1705.68930801 -152.87643875 1705.68930801 -153.72862625 1706.06805801 C-156.46523538 1707.54730619 -158.71763494 1709.25273241 -161.04112625 1711.31805801 C-161.04112625 1711.97805801 -161.04112625 1712.63805801 -161.04112625 1713.31805801 C-161.87643875 1713.68930801 -161.87643875 1713.68930801 -162.72862625 1714.06805801 C-165.46523538 1715.54730619 -167.71763494 1717.25273241 -170.04112625 1719.31805801 C-170.04112625 1719.97805801 -170.04112625 1720.63805801 -170.04112625 1721.31805801 C-170.634095 1721.58231583 -171.22706375 1721.84657364 -171.83800125 1722.11883926 C-174.1214168 1723.36176226 -175.51539349 1724.62207447 -177.29112625 1726.50555801 C-182.67748963 1732.04027462 -188.52998774 1736.91509703 -194.54112625 1741.75555801 C-198.02604381 1744.57530459 -201.2503759 1747.45926941 -204.35362625 1750.69305801 C-207.38330473 1753.82893141 -210.00091293 1755.70197269 -214.04112625 1757.31805801 C-212.47721238 1752.223043 -209.33959081 1748.70542405 -205.97862625 1744.69305801 C-205.39661453 1743.98810196 -204.81460281 1743.2831459 -204.21495438 1742.55682755 C-203.0421066 1741.13667311 -201.86684424 1739.71850902 -200.68907547 1738.30243301 C-198.45578781 1735.61322382 -196.24880365 1732.90332639 -194.04112625 1730.19305801 C-192.70794205 1728.56793566 -191.3746313 1726.94291711 -190.04112625 1725.31805801 C-189.5512825 1724.71477676 -189.06143875 1724.11149551 -188.55675125 1723.48993301 C-185.88975691 1720.23027326 -183.02924337 1717.28313461 -180.04112625 1714.31805801 C-179.03552262 1713.3087655 -178.03075789 1712.29863663 -177.02672195 1711.28778458 C-174.09953995 1708.34290057 -171.16938974 1705.40099042 -168.23814774 1702.46014786 C-166.97554429 1701.19247371 -165.71383366 1699.92390974 -164.45299149 1698.6544838 C-162.62663013 1696.81604302 -160.79710182 1694.98080704 -158.9669075 1693.14618301 C-158.1200312 1692.29156479 -158.1200312 1692.29156479 -157.2560463 1691.41968155 C-153.26886812 1687.43192895 -153.26886812 1687.43192895 -151.04112625 1686.31805801 C-151.04112625 1685.65805801 -151.04112625 1684.99805801 -151.04112625 1684.31805801 C-150.49972 1684.1053627 -149.95831375 1683.89266739 -149.40050125 1683.67352676 C-146.18789032 1681.82787114 -143.83560588 1679.27843237 -141.29112625 1676.63055801 C-137.29834078 1672.55049854 -133.25018732 1668.66130835 -128.90050125 1664.95868301 C-126.23098929 1662.60323128 -123.76305615 1660.06577112 -121.29112625 1657.50555801 C-119.35691864 1655.62507839 -117.38340827 1653.85720937 -115.34581375 1652.09149551 C-110.03075327 1647.47623901 -104.96126892 1642.6098523 -99.86925125 1637.75165176 C-99.14479813 1637.06458145 -98.420345 1636.37751114 -97.67393875 1635.66962051 C-97.02312332 1635.04909805 -96.37230789 1634.42857559 -95.70177078 1633.78924942 C-94.04112625 1632.31805801 -94.04112625 1632.31805801 -92.04112625 1631.31805801 C-92.04112625 1630.65805801 -92.04112625 1629.99805801 -92.04112625 1629.31805801 C-91.17487625 1628.94680801 -91.17487625 1628.94680801 -90.29112625 1628.56805801 C-87.65823943 1627.10534311 -85.91661956 1625.67979033 -84.04112625 1623.31805801 C-84.44502416 1619.92342438 -86.02467313 1617.48139637 -87.84972 1614.64227676 C-88.7152449 1613.28839859 -88.7152449 1613.28839859 -89.59825516 1611.90716934 C-90.21877762 1610.9496376 -90.83930008 1609.99210587 -91.47862625 1609.00555801 C-92.11461746 1608.01515518 -92.75060867 1607.02475235 -93.40587234 1606.00433731 C-97.32707899 1599.91484679 -101.31217037 1593.87137364 -105.35582352 1587.86273575 C-110.23196915 1580.59163832 -114.86069226 1573.16394488 -119.51329422 1565.74872208 C-121.00838515 1563.3701466 -122.50974002 1560.99566902 -124.0137825 1558.62274551 C-129.83957306 1549.42993987 -135.60618956 1540.20265145 -141.32603836 1530.9435463 C-144.54946605 1525.72558348 -147.78510052 1520.51573827 -151.04112625 1515.31805801 C-154.85606447 1509.22817092 -158.63939708 1503.11920432 -162.41612625 1497.00555801 C-168.07290046 1487.85423547 -173.79837932 1478.74817236 -179.55723953 1469.66083145 C-182.05596219 1465.71582608 -184.54819225 1461.76672285 -187.04112625 1457.81805801 C-188.04109564 1456.23470535 -189.04109563 1454.65137201 -190.04112625 1453.06805801 C-192.04112625 1449.90139135 -194.04112625 1446.73472468 -196.04112625 1443.56805801 C-196.53620682 1442.78422745 -197.03128738 1442.00039688 -197.54137039 1441.19281387 C-198.54072808 1439.61040263 -199.53991446 1438.02788319 -200.53892899 1436.44525528 C-203.04735844 1432.47190629 -205.55879277 1428.50051737 -208.0762825 1424.53290176 C-214.33111148 1414.66788951 -220.4889223 1404.74993517 -226.55333328 1394.76678848 C-228.15036224 1392.13826856 -229.74982789 1389.5112424 -231.34972 1386.88446426 C-236.09972286 1379.08475505 -240.84777692 1371.28387096 -245.58800125 1363.47821426 C-251.17941432 1354.27526019 -256.79287701 1345.08807273 -262.47862625 1335.94305801 C-267.82369771 1327.34230776 -273.043287 1318.67052831 -278.23741531 1309.97797012 C-282.84248446 1302.28377527 -287.51787982 1294.63545035 -292.22862625 1287.00555801 C-298.92216626 1276.16200713 -305.51223838 1265.26133931 -312.04112625 1254.31805801 C-320.29889515 1240.46510294 -320.29889515 1240.46510294 -328.79112625 1226.75555801 C-333.96245469 1218.55923031 -338.87605719 1210.21124964 -343.80357742 1201.86713028 C-344.49992043 1200.68799624 -345.19629094 1199.50887844 -345.89268875 1198.32977676 C-346.23904877 1197.74331879 -346.58540878 1197.15686081 -346.94226456 1196.55263138 C-350.47014737 1190.58389352 -354.03318616 1184.63642557 -357.60362625 1178.69305801 C-358.21158035 1177.68041885 -358.81953445 1176.66777969 -359.44591141 1175.6244545 C-362.65957612 1170.27415771 -365.8794142 1164.9276299 -369.10362625 1159.58368301 C-370.10800735 1157.9162001 -370.10800735 1157.9162001 -371.13267899 1156.21503067 C-372.40107555 1154.10936354 -373.6712766 1152.00478177 -374.94371414 1149.90155411 C-378.33982091 1144.2604033 -381.57287731 1138.55963111 -384.69908524 1132.76483536 C-386.37645743 1129.70669016 -388.17860557 1126.7670491 -390.04112625 1123.81805801 C-393.03476249 1119.07813396 -395.73910479 1114.23307122 -398.40782547 1109.3029213 C-401.22392658 1104.156486 -404.16594296 1099.08327294 -407.10362625 1094.00555801 C-407.7577449 1092.87327774 -408.41186356 1091.74099747 -409.08580399 1090.57440567 C-413.74199155 1082.52357066 -418.45495089 1074.50732285 -423.19566727 1066.5060463 C-432.35648566 1051.0427079 -441.39875776 1035.51871467 -450.20152664 1019.84857559 C-454.54184209 1012.14506294 -459.01314993 1004.52416033 -463.55308914 996.93671036 C-466.71362284 991.6380937 -469.73199433 986.28301336 -472.64879227 980.84613419 C-474.04496174 978.31109388 -475.52234396 975.84374484 -477.04112625 973.38055801 C-479.16149571 969.89044084 -481.05714381 966.36025771 -482.85362625 962.69305801 C-486.24679268 955.78333729 -490.04163922 949.1279436 -493.84239578 942.43768692 C-495.82584423 938.93049763 -497.77626441 935.40511622 -499.72862625 931.88055801 C-512.23305729 909.32587514 -512.23305729 909.32587514 -525.04112625 886.94305801 C-529.53775622 879.21275277 -533.88028113 871.4221581 -538.04893875 863.50946426 C-538.79628851 862.09147123 -539.54368594 860.67350332 -540.29112625 859.25555801 C-540.67083572 858.53424698 -541.0505452 857.81293594 -541.44176102 857.069767 C-544.25155724 851.75354136 -547.15961396 846.49839703 -550.10362625 841.25555801 C-553.60269206 835.01235034 -556.91270918 828.70749708 -560.07262039 822.28656387 C-562.47435688 817.41495226 -564.9823231 812.60886953 -567.54112625 807.81805801 C-571.85683275 799.72312278 -575.96985724 791.53800359 -580.04112625 783.31805801 C-581.70467665 779.96233407 -583.37214563 776.60858399 -585.04112625 773.25555801 C-585.42003006 772.48945206 -585.79893387 771.7233461 -586.18931961 770.93402481 C-588.3480509 766.59800321 -590.5773928 762.3108216 -592.88440323 758.05153275 C-597.30716453 749.86949985 -601.29380789 741.55059299 -605.10362625 733.06805801 C-605.41794601 732.37195419 -605.73226578 731.67585037 -606.05611038 730.9586525 C-630.17498695 677.53283832 -649.76241501 623.76427401 -662.04112625 566.31805801 C-662.33358231 564.98073624 -662.33358231 564.98073624 -662.63194656 563.61639786 C-670.99262374 525.16207863 -651.53165475 484.21487871 -639.86009598 448.07442093 C-637.80776488 441.71441744 -635.7763794 435.34822659 -633.76768875 428.97430801 C-633.52263596 428.19675156 -633.27758316 427.4191951 -633.02510452 426.61807632 C-632.56780232 425.16636566 -632.11059219 423.71462599 -631.65349197 422.26285172 C-621.09420941 388.7279469 -621.09420941 388.7279469 -614.04112625 384.31805801 C-610.46478312 383.12594364 -607.80047942 383.05879228 -604.04112625 383.31805801 C-601.22862625 384.81805801 -601.22862625 384.81805801 -599.04112625 386.31805801 C-598.38112625 386.31805801 -597.72112625 386.31805801 -597.04112625 386.31805801 C-594.46585717 393.73483298 -592.39123186 401.23820552 -590.35362625 408.81805801 C-586.90796656 421.4708279 -583.06899327 433.96125852 -578.98057938 446.42157364 C-578.08678121 449.17729647 -577.22165107 451.93990937 -576.36925125 454.70868301 C-571.50684263 470.45812188 -565.78861867 485.87646505 -560.04112625 501.31805801 C-551.40171232 524.54512398 -543.22067799 547.9162059 -535.11388016 571.33368301 C-532.06292368 580.14504221 -529.00189946 588.95288709 -525.93480301 597.75864029 C-525.01403423 600.40383748 -524.09538171 603.04976251 -523.17686844 605.69574356 C-517.51738717 621.96706119 -511.5317851 638.11171872 -505.42589188 654.22040176 C-503.26143123 659.96348972 -501.18726122 665.73184996 -499.16222 671.52508926 C-496.17453876 680.04826394 -492.95873588 688.47121541 -489.66612625 696.88055801 C-489.37043747 697.6379628 -489.07474869 698.39536758 -488.77009964 699.17572403 C-476.58503805 730.38586228 -464.04303937 761.43934569 -451.04112625 792.31805801 C-450.77709 792.94560989 -450.51305374 793.57316177 -450.24101639 794.21973038 C-446.85817664 802.25980565 -443.4584527 810.29258217 -440.04112625 818.31805801 C-439.68453934 819.15562637 -439.32795242 819.99319473 -438.96055984 820.85614395 C-436.79415687 825.93874043 -434.61543432 831.01595526 -432.43028641 836.09051895 C-431.40799314 838.4656889 -430.38686703 840.84134226 -429.36680984 843.21747208 C-420.1677417 864.64005722 -410.7735857 885.96703228 -401.21722794 907.23247147 C-398.7407116 912.74767652 -396.28216241 918.27063953 -393.834095 923.79852676 C-393.49188919 924.57118881 -393.14968338 925.34385086 -392.7971077 926.13992691 C-392.11295917 927.68477516 -391.42881606 929.22962581 -390.7446785 930.77447891 C-385.41952267 942.79518569 -380.02897275 954.77963921 -374.48839188 966.70306778 C-369.9230648 976.53482573 -365.46511789 986.41379603 -361.02305984 996.30170059 C-355.16482584 1009.33064681 -349.10681467 1022.25327694 -342.84730911 1035.09412003 C-337.65839668 1045.74539461 -332.56035994 1056.43123853 -327.60362625 1067.19305801 C-321.2096181 1081.06726142 -314.5398338 1094.80073189 -307.85182571 1108.53482437 C-304.9116008 1114.57603083 -302.00013963 1120.63076912 -299.10362625 1126.69305801 C-298.44729202 1128.06554703 -298.44729202 1128.06554703 -297.77769852 1129.46576309 C-295.7196221 1133.77648772 -293.67465825 1138.09285988 -291.65050125 1142.41962051 C-288.30627064 1149.55857796 -284.93107202 1156.64041365 -281.16612625 1163.56805801 C-277.98340248 1169.42975322 -275.07126422 1175.38074158 -272.22472 1181.41180801 C-265.96805839 1194.57485193 -259.46995395 1207.61383518 -252.94322586 1220.64422989 C-251.30139983 1223.9221638 -249.66323492 1227.20191209 -248.02599716 1230.48213959 C-241.5066353 1243.54014384 -234.94595766 1256.56948038 -228.08189774 1269.45087051 C-226.04133263 1273.28972793 -224.09249633 1277.17087538 -222.16612625 1281.06805801 C-218.57205446 1288.30693575 -214.84829916 1295.47308276 -211.09630203 1302.63129044 C-208.0095853 1308.52710036 -204.94766226 1314.43479925 -201.91222 1320.35712051 C-195.2961243 1333.26136556 -188.6738221 1346.14283362 -181.64976883 1358.83148575 C-176.24331548 1368.65595755 -171.17010056 1378.65408898 -166.08995438 1388.65008926 C-162.42739381 1395.8344644 -158.6256649 1402.8717176 -154.50865555 1409.8107338 C-152.81231632 1412.70898765 -151.30303483 1415.66432188 -149.85362625 1418.69305801 C-146.49426406 1425.56527553 -142.83056992 1432.25653691 -139.14561844 1438.95843887 C-134.92194523 1446.6591048 -130.80302837 1454.41161493 -126.70140457 1462.17761612 C-120.90756931 1473.14454159 -115.01466334 1484.03157727 -108.85387039 1494.79828262 C-104.27851236 1502.82169534 -99.92332587 1510.95709798 -95.58760452 1519.11136246 C-90.73688779 1528.22801742 -85.730551 1537.24372584 -80.61241531 1546.2128334 C-77.2237399 1552.17032647 -73.95761665 1558.17720988 -70.79112625 1564.25555801 C-67.65369273 1570.27545718 -64.47145596 1576.26335138 -61.16612625 1582.19305801 C-60.80873367 1582.84137589 -60.45134109 1583.48969376 -60.08311844 1584.15765762 C-58.02048645 1587.82764282 -55.76335558 1591.10753643 -53.04112625 1594.31805801 C-41.63636748 1583.77546876 -41.63636748 1583.77546876 -30.61925125 1572.83368301 C-29.04112625 1571.31805801 -29.04112625 1571.31805801 -26.83800125 1569.73993301 C-26.2450325 1569.27071426 -25.65206375 1568.80149551 -25.04112625 1568.31805801 C-25.04112625 1567.65805801 -25.04112625 1566.99805801 -25.04112625 1566.31805801 C-24.23675125 1566.00868301 -24.23675125 1566.00868301 -23.41612625 1565.69305801 C-21.30712671 1564.47205828 -19.57199623 1563.27431711 -17.72862625 1561.69305801 C-17.19624344 1561.24704239 -16.66386063 1560.80102676 -16.115345 1560.34149551 C-13.07329337 1554.61137644 -17.40764139 1544.36575629 -18.9200325 1538.44696426 C-19.20776031 1537.30458298 -19.49548813 1536.16220169 -19.79193497 1534.98520279 C-20.40681045 1532.54570704 -21.02376659 1530.10673493 -21.64262772 1527.66824722 C-22.93624413 1522.56957459 -24.21881719 1517.46814661 -25.50175858 1512.36677933 C-26.13836552 1509.83552096 -26.77544806 1507.30438215 -27.41301346 1504.77336502 C-36.13830645 1470.12526048 -44.17376202 1435.33962093 -51.6063118 1400.39276505 C-53.52088913 1391.39397809 -55.45274391 1382.39972227 -57.4356575 1373.41571426 C-57.63376526 1372.51764053 -57.83187302 1371.6195668 -58.03598404 1370.69427872 C-58.97345011 1366.44810461 -59.91414308 1362.20267622 -60.85924149 1357.95819473 C-65.79822428 1335.6900179 -70.04430247 1313.27725095 -74.35362625 1290.88055801 C-74.59101517 1289.64682449 -74.82840408 1288.41309097 -75.0729866 1287.14197159 C-76.04438444 1282.09247135 -77.01567436 1277.04295069 -77.98591995 1271.99322891 C-79.23537595 1265.49310655 -80.49138886 1258.99435089 -81.75915909 1252.49777603 C-86.21067366 1229.6774449 -90.16718011 1206.8133891 -93.82289505 1183.85258865 C-94.88730092 1177.19960246 -96.03119874 1170.5630793 -97.20347977 1163.92840958 C-109.71324228 1093.07593456 -117.69777649 1021.52809093 -126.21989822 950.1154213 C-133.32276092 890.60560457 -141.09742386 831.18913065 -149.161973 771.80247784 C-149.78307442 767.22675804 -150.40057389 762.65057196 -151.01475906 758.07391739 C-156.2431801 719.12224473 -163.33486848 680.75283348 -171.41887283 642.29028702 C-171.84228461 640.2678365 -172.26219592 638.24465067 -172.67900467 636.22082901 C-173.31147635 633.15130277 -173.95456191 630.08415852 -174.59972 627.01727676 C-174.78559174 626.10436371 -174.97146347 625.19145065 -175.16296768 624.25087357 C-176.99713826 615.63713338 -179.75448385 607.38022089 -183.81847 599.54852676 C-184.32539383 598.56867813 -184.83231766 597.5888295 -185.35460281 596.57928848 C-185.89053055 595.56495743 -186.42645828 594.55062637 -186.97862625 593.50555801 C-187.54420242 592.42677383 -188.10977859 591.34798965 -188.69249344 590.23651505 C-194.44300434 579.37602831 -200.67932173 568.82830272 -207.04112625 558.31805801 C-207.84032235 556.98533523 -208.63858819 555.65205387 -209.4356575 554.31805801 C-210.87141259 551.91567173 -212.31149424 549.51599203 -213.75597 547.11883926 C-215.42322737 544.3503551 -217.0799201 541.57577713 -218.7325325 538.79852676 C-224.36416582 529.34838528 -230.08990035 519.96215078 -235.91612625 510.63055801 C-236.84352615 509.14374527 -236.84352615 509.14374527 -237.78966141 507.6268959 C-245.33973789 495.50121306 -245.33973789 495.50121306 -254.10362625 484.25555801 C-258.42642704 479.24476429 -262.63500133 474.15539583 -266.79112625 469.00555801 C-273.49378003 460.7407185 -280.37253598 452.89303482 -287.85362625 445.31805801 C-288.52506668 444.63348526 -289.19650711 443.94891251 -289.88829422 443.24359512 C-290.83986404 442.29045425 -290.83986404 442.29045425 -291.8106575 441.31805801 C-292.38404861 440.74055801 -292.95743973 440.16305801 -293.54820633 439.56805801 C-294.97218114 438.1040677 -294.97218114 438.1040677 -297.04112625 438.31805801 C-297.04112625 437.65805801 -297.04112625 436.99805801 -297.04112625 436.31805801 C-298.86020061 434.75052514 -300.67920057 433.30948608 -302.60362625 431.88055801 C-303.19296951 431.43808731 -303.78231277 430.99561661 -304.38951492 430.5397377 C-305.64448004 429.59946372 -306.9014592 428.66187286 -308.16026688 427.72674942 C-309.92361917 426.4060663 -311.66393662 425.06038125 -313.40050125 423.70477676 C-323.67085158 415.79690214 -334.77453005 409.47362624 -346.01720047 403.06024551 C-348.83689532 401.43572247 -351.63270908 399.77863031 -354.4200325 398.09930801 C-366.03244343 391.1041665 -377.85860765 384.60547594 -389.84263992 378.27753067 C-397.79145107 374.07646696 -405.66697054 369.77109498 -413.47862625 365.31805801 C-424.8501154 358.83947663 -436.30309688 352.63566292 -448.03528214 346.83072281 C-453.34364394 344.19350745 -458.60471437 341.47167571 -463.8601265 338.73070145 C-477.65710994 331.54341605 -491.53633837 324.52786587 -505.45518875 317.57977676 C-506.39353184 317.11132528 -507.33187492 316.6428738 -508.29865265 316.16022682 C-515.08638482 312.77247559 -521.87606508 309.38863823 -528.66612625 306.00555801 C-535.50368944 302.59873119 -542.34051558 299.19043993 -549.17565918 295.77876091 C-551.85471308 294.44239601 -554.53498651 293.10850236 -557.2153511 291.77476883 C-567.14678552 286.82382812 -577.00581943 281.75316325 -586.80977249 276.55421829 C-600.4784628 267.59469038 -600.4784628 267.59469038 -613.61143875 272.20868301 Z M-16.36925125 484.56415176 C-19.74627844 488.04485961 -22.94468846 491.58765128 -26.04112625 495.31805801 C-26.82487625 496.21395645 -27.60862625 497.10985489 -28.41612625 498.03290176 C-39.18302204 510.38534042 -48.9077646 523.72602437 -58.021595 537.33758926 C-59.33498425 539.27591808 -60.71102947 541.17370149 -62.1544075 543.01727676 C-70.25767577 554.20314426 -71.7540314 567.98890687 -74.04112625 581.31805801 C-74.20983231 582.30048477 -74.37853836 583.28291153 -74.55235672 584.2951088 C-78.70381687 609.42283801 -79.33988654 634.93612431 -79.45518875 660.34930801 C-79.47400187 663.04800625 -79.49350716 665.74669124 -79.51387405 668.44537735 C-79.55487528 674.05883647 -79.58950591 679.67230181 -79.61925125 685.28583145 C-79.6604972 693.06881558 -79.71328526 700.85168892 -79.76851606 708.63458467 C-79.92695403 731.09277753 -80.06717873 753.55155612 -80.0932312 776.01033401 C-80.09489734 777.43364439 -80.09724974 778.85695422 -80.10044098 780.28026199 C-80.12680798 793.83452797 -79.69062018 807.36707667 -79.13292313 820.90839005 C-79.05954191 823.63403373 -79.04451399 826.34212295 -79.05968094 829.06781387 C-79.0700376 834.33097248 -78.82751536 839.560745 -78.52550125 844.81415176 C-78.46998596 845.81403122 -78.41447067 846.81391068 -78.3572731 847.84408951 C-78.17224754 851.14813328 -77.98223217 854.45186061 -77.79112625 857.75555801 C-77.72454819 858.91562363 -77.65797012 860.07568924 -77.58937454 861.27090836 C-74.7343937 910.84681596 -71.04372869 960.35024179 -67.04341507 1009.84474564 C-66.53188546 1016.17558745 -66.02278718 1022.50639197 -65.54674149 1028.84003067 C-64.16556143 1047.07688515 -62.27640157 1065.25702486 -60.35362625 1083.44305801 C-60.26634892 1084.27097351 -60.17907158 1085.09888901 -60.08914948 1085.95189285 C-56.83669299 1116.79918133 -53.2365253 1147.58299162 -49.04112625 1178.31805801 C-48.85090897 1179.72308578 -48.85090897 1179.72308578 -48.65684891 1181.15649796 C-38.3319419 1257.38366682 -24.84438395 1333.27095035 -10.6868782 1408.86603165 C-10.03964563 1412.32597304 -9.39453618 1415.78630372 -8.75011063 1419.24676895 C-4.12976428 1444.05165502 0.59410444 1468.82443109 5.73084641 1493.52789688 C5.96166916 1494.63832352 5.96166916 1494.63832352 6.197155 1495.77118301 C6.34749191 1496.49438736 6.49782883 1497.21759171 6.65272141 1497.96271133 C8.88112579 1508.72294796 10.93051406 1519.5185341 12.95887375 1530.31805801 C13.28887375 1529.65805801 13.61887375 1528.99805801 13.95887375 1528.31805801 C14.61887375 1528.31805801 15.27887375 1528.31805801 15.95887375 1528.31805801 C15.95887375 1527.65805801 15.95887375 1526.99805801 15.95887375 1526.31805801 C16.59824875 1526.04993301 17.23762375 1525.78180801 17.89637375 1525.50555801 C20.29019061 1524.43138049 20.29019061 1524.43138049 20.95887375 1521.31805801 C21.94887375 1520.98805801 22.93887375 1520.65805801 23.95887375 1520.31805801 C23.95887375 1519.65805801 23.95887375 1518.99805801 23.95887375 1518.31805801 C24.94887375 1517.98805801 25.93887375 1517.65805801 26.95887375 1517.31805801 C26.95887375 1516.65805801 26.95887375 1515.99805801 26.95887375 1515.31805801 C27.59824875 1515.04993301 28.23762375 1514.78180801 28.89637375 1514.50555801 C31.29019061 1513.43138049 31.29019061 1513.43138049 31.95887375 1510.31805801 C32.94887375 1509.98805801 33.93887375 1509.65805801 34.95887375 1509.31805801 C34.95887375 1508.65805801 34.95887375 1507.99805801 34.95887375 1507.31805801 C36.27887375 1506.65805801 37.59887375 1505.99805801 38.95887375 1505.31805801 C38.95887375 1504.65805801 38.95887375 1503.99805801 38.95887375 1503.31805801 C39.94887375 1502.98805801 40.93887375 1502.65805801 41.95887375 1502.31805801 C41.95887375 1501.65805801 41.95887375 1500.99805801 41.95887375 1500.31805801 C42.61887375 1500.31805801 43.27887375 1500.31805801 43.95887375 1500.31805801 C45.35908496 1498.93073477 45.35908496 1498.93073477 46.83778 1497.06024551 C49.95516389 1493.39244979 53.24781065 1489.95357954 56.6737175 1486.57587051 C57.17803299 1486.07722488 57.68234848 1485.57857925 58.20194626 1485.06482315 C60.30276223 1482.99105276 62.40774486 1480.92160069 64.51673508 1478.85614395 C66.07337026 1477.32952132 67.62387839 1475.79688754 69.1737175 1474.26337051 C70.09273849 1473.3611879 71.01175949 1472.45900528 71.95862961 1471.5294838 C74.1824765 1469.56782138 74.1824765 1469.56782138 73.95887375 1467.31805801 C74.61887375 1467.31805801 75.27887375 1467.31805801 75.95887375 1467.31805801 C77.52751457 1465.76726731 77.52751457 1465.76726731 79.14637375 1463.75555801 C82.14564868 1460.20809628 85.29882507 1456.95282929 88.6737175 1453.76337051 C90.18037015 1452.39130062 90.18037015 1452.39130062 89.95887375 1450.31805801 C90.94887375 1449.98805801 91.93887375 1449.65805801 92.95887375 1449.31805801 C92.95887375 1448.65805801 92.95887375 1447.99805801 92.95887375 1447.31805801 C93.61887375 1447.31805801 94.27887375 1447.31805801 94.95887375 1447.31805801 C96.49880004 1445.81500973 96.49880004 1445.81500973 98.09168625 1443.84149551 C101.8671788 1439.40192253 105.82141252 1435.16809997 109.83387375 1430.94305801 C115.63245723 1424.8096726 121.34712847 1418.62301888 126.95887375 1412.31805801 C128.39635462 1410.73470731 129.8338553 1409.1513746 131.27137375 1407.56805801 C135.8667288 1402.46299287 140.32765681 1397.24858909 144.78699875 1392.02508926 C147.99206668 1388.2729357 151.22355772 1384.54412966 154.45887375 1380.81805801 C156.09162684 1378.93433662 157.72401035 1377.05029549 159.35633469 1375.16620255 C160.41072784 1373.95021288 161.46604167 1372.73502082 162.52235031 1371.52069473 C168.47468519 1364.67456481 174.25666755 1357.74616071 179.81043625 1350.5722084 C183.11083815 1346.33230632 186.55781505 1342.24643519 190.08387375 1338.19305801 C194.53103999 1333.07091974 198.68624968 1327.81186054 202.70887375 1322.34540176 C205.08874898 1319.14331269 207.54399018 1316.00711497 210.02137375 1312.88055801 C214.80858707 1306.82061909 219.52082703 1300.7049898 224.20887375 1294.56805801 C225.20092819 1293.27363785 225.20092819 1293.27363785 226.21302414 1291.95306778 C230.03007848 1286.94542528 233.71306482 1281.86765839 237.30164719 1276.69403458 C239.3067407 1273.81931889 241.36692196 1270.98796217 243.43397141 1268.15765762 C254.98997622 1252.32226774 265.98226657 1236.09099528 276.52381516 1219.56415176 C278.08299496 1217.12378868 279.651684 1214.68967678 281.2205925 1212.25555801 C293.37854722 1193.338214 305.05059567 1174.13980047 315.81580734 1154.39374161 C316.93394341 1152.36332879 318.07622083 1150.34884511 319.228405 1148.33758926 C358.8509098 1078.88186461 388.53664086 1000.9914488 398.95887375 909.31805801 C399.02944992 908.59553848 399.10002609 907.87301895 399.17274094 907.12860489 C401.26428335 885.01801368 400.55143047 862.34756855 397.95887375 840.31805801 C397.78146652 838.81057999 397.78146652 838.81057999 397.60047531 837.27264786 C394.62338452 813.23245032 388.81202785 789.23381916 380.95887375 766.31805801 C380.53011677 765.01349257 380.10174687 763.70879987 379.6737175 762.40399551 C375.91121008 751.14997135 371.20020696 740.34351936 366.3768425 729.50995255 C364.88299746 726.14725799 363.40441296 722.77811888 361.92762375 719.40790176 C357.3730405 709.04500207 352.80402753 698.72392317 347.63221359 688.65228653 C344.40794952 682.3439064 341.65927 675.86447317 338.95887375 669.31805801 C336.85120985 671.98157693 335.26169201 674.54182193 333.86512375 677.63446426 C333.48049973 678.47114639 333.0958757 679.30782852 332.69959641 680.16986465 C332.08543869 681.51165787 332.08543869 681.51165787 331.45887375 682.88055801 C326.94287065 692.54187066 321.89977743 701.74822078 316.41492844 710.88837051 C314.87870577 713.45183262 313.35943714 716.02487129 311.84168625 718.59930801 C302.8137081 733.85488028 302.8137081 733.85488028 297.59168625 741.04462051 C295.67626282 743.71154979 293.88395746 746.44704796 292.08387375 749.19305801 C285.31236237 759.36329732 277.86133901 768.73901364 269.8612175 777.94696426 C267.3445944 780.85013019 264.92224646 783.81806844 262.52137375 786.81805801 C257.92667781 792.48401276 252.96232387 797.77067812 247.97449875 803.08758926 C244.5410867 806.7506716 241.22947419 810.50936393 237.95887375 814.31805801 C233.19465188 819.85031565 228.29318947 825.2399334 223.30970383 830.57464981 C220.06645993 834.06125708 216.97805214 837.63532394 213.95887375 841.31805801 C213.95887375 837.74229906 215.04727982 836.26509866 216.95887375 833.31805801 C216.29887375 833.31805801 215.63887375 833.31805801 214.95887375 833.31805801 C217.90524428 827.55342001 221.68244378 822.82300909 225.83778 817.86883926 C229.49725008 814.05193495 229.49725008 814.05193495 230.95887375 809.31805801 C231.61887375 809.31805801 232.27887375 809.31805801 232.95887375 809.31805801 C234.28595929 807.41111978 235.51966893 805.43889401 236.70887375 803.44305801 C237.06449387 802.8502504 237.42011398 802.25744278 237.78651047 801.6466713 C238.51002271 800.43930008 239.23057377 799.23014939 239.94813156 798.01922989 C240.82410332 796.54488902 241.71442729 795.07909344 242.60731125 793.61493301 C276.9954296 737.21114101 302.92528847 673.62789137 323.70447922 611.08270645 C324.92175747 607.42945019 326.15818308 603.78325324 327.40028 600.13837051 C332.9818839 583.68154762 338.15521286 567.1136435 343.25403976 550.50214005 C346.61149931 539.57821146 350.06638697 528.70157564 353.77576828 517.89081192 C354.0695134 517.03149063 354.36325851 516.17216934 354.665905 515.28680801 C354.91831955 514.55913223 355.1707341 513.83145645 355.43079758 513.08172989 C356.05448604 511.30557039 356.05448604 511.30557039 355.95887375 509.31805801 C355.00740463 509.21054214 354.05593552 509.10302628 353.075634 508.99225235 C340.78643573 507.60330819 328.49757663 506.21137792 316.20887375 504.81805801 C315.21761364 504.7056918 314.22635353 504.59332558 313.20505524 504.47755432 C291.46396548 502.01268692 269.72364647 499.54255345 247.99403 496.97821426 C247.22626362 496.88763622 246.45849724 496.79705818 245.66746521 496.70373535 C239.17475854 495.93732987 232.68227567 495.16906262 226.19068527 494.39325333 C211.08698313 492.5882709 195.98152154 490.8599555 180.84664536 489.33504105 C168.22897106 488.06189201 155.64601366 486.51772909 143.06092453 484.9591713 C125.36036247 482.77098921 107.63437198 480.87475513 89.89451218 479.03863907 C85.03090267 478.53495224 80.16836941 478.02221756 75.30653 477.50165176 C62.0559793 476.09080176 48.79789246 474.82960701 35.52137375 473.69305801 C34.79197586 473.63052841 34.06257797 473.56799881 33.31107712 473.50357437 C29.84273461 473.20757127 26.37404573 472.91799969 22.90418625 472.64032364 C20.27783549 472.42579499 17.6527344 472.19536401 15.02918625 471.94891739 C13.80070969 471.84128067 12.57223312 471.73364395 11.30653 471.62274551 C10.22766525 471.52203751 9.14880051 471.4213295 8.03724289 471.31756973 C-2.13725448 471.31918358 -9.52934551 477.79315341 -16.36925125 484.56415176 Z M437.95887375 518.31805801 C435.37617951 529.08091656 433.89229852 539.76107459 432.77137375 550.75555801 C432.68482529 551.5928746 432.59827682 552.43019119 432.50910568 553.29288101 C431.14225356 566.68672461 430.33168297 579.85190314 430.95887375 593.31805801 C430.99754562 594.35962051 431.0362175 595.40118301 431.07606125 596.47430801 C431.6743853 611.5379959 433.35667062 626.31840482 435.70887375 641.19305801 C435.88038956 642.28386169 435.88038956 642.28386169 436.05537033 643.39670181 C437.74212387 653.99489173 439.75618409 664.52481072 441.8143425 675.05633926 C458.09387287 758.36722779 473.38003817 848.46205259 459.95887375 933.31805801 C459.66085861 935.2412587 459.66085861 935.2412587 459.35682297 937.20331192 C456.33152733 956.31457209 451.74823842 974.84669721 445.95887375 993.31805801 C445.49142746 994.83157852 445.49142746 994.83157852 445.01453781 996.3756752 C437.91531121 1019.19086166 428.94540986 1041.61288971 418.95887375 1063.31805801 C418.59036301 1064.13129532 418.22185226 1064.94453262 417.84217453 1065.78241348 C408.00033643 1087.41088404 396.27163992 1107.75474153 382.94276047 1127.41717911 C378.26913285 1134.31245346 373.78117101 1141.29835048 369.39637375 1148.38055801 C362.65892562 1159.24906736 355.73946015 1169.98679049 348.7049675 1180.66522598 C347.05487 1183.17221136 345.41262555 1185.68418308 343.77137375 1188.19696426 C338.61178219 1196.05761695 333.25241427 1203.669354 327.53504562 1211.1334877 C322.30040349 1218.0436248 317.67071372 1225.3239055 312.99012375 1232.61493301 C304.09788792 1246.46331524 294.58345506 1259.63893431 283.30628586 1271.62982559 C275.15619589 1279.12451724 275.15619589 1279.12451724 270.95887375 1288.31805801 C270.29887375 1288.31805801 269.63887375 1288.31805801 268.95887375 1288.31805801 C267.79193677 1289.79127767 266.70292772 1291.32626983 265.64637375 1292.88055801 C257.331774 1304.59316779 247.39891611 1315.09203324 237.59803391 1325.56561661 C235.79167218 1327.49681477 233.9905462 1329.43282993 232.1893425 1331.36883926 C226.04986576 1337.95401582 219.9167067 1344.50008846 213.40028 1350.71649551 C211.7358855 1352.20670907 211.7358855 1352.20670907 211.95887375 1354.31805801 C210.96887375 1354.64805801 209.97887375 1354.97805801 208.95887375 1355.31805801 C206.75029715 1357.19313963 206.75029715 1357.19313963 204.95887375 1359.31805801 C204.95887375 1359.97805801 204.95887375 1360.63805801 204.95887375 1361.31805801 C204.29887375 1361.31805801 203.63887375 1361.31805801 202.95887375 1361.31805801 C201.59710453 1362.96157259 200.26925309 1364.63328458 198.95887375 1366.31805801 C197.30758722 1367.99996418 195.63797688 1369.66392131 193.95887375 1371.31805801 C192.91877651 1372.35176954 191.8792555 1373.38606108 190.84022141 1374.42084122 C190.00377594 1375.25244514 190.00377594 1375.25244514 189.15043259 1376.10084915 C186.62376871 1378.61400018 184.09987125 1381.12992226 181.57606125 1383.64593887 C180.25241865 1384.96455293 178.92787988 1386.28226804 177.60242844 1387.59906387 C168.15320345 1396.94250517 168.15320345 1396.94250517 159.25330734 1406.80316544 C157.58960203 1408.75022154 155.80054605 1410.53989165 153.95887375 1412.31805801 C150.6952029 1415.5314218 147.67828747 1418.88302286 144.70106125 1422.36102676 C142.34719936 1425.0051631 139.8159151 1427.44217278 137.24403 1429.87274551 C135.73737735 1431.24481541 135.73737735 1431.24481541 135.95887375 1433.31805801 C135.29887375 1433.31805801 134.63887375 1433.31805801 133.95887375 1433.31805801 C132.39023293 1434.86884872 132.39023293 1434.86884872 130.77137375 1436.88055801 C127.77209882 1440.42801975 124.61892242 1443.68328674 121.24403 1446.87274551 C119.73737735 1448.24481541 119.73737735 1448.24481541 119.95887375 1450.31805801 C118.96887375 1450.64805801 117.97887375 1450.97805801 116.95887375 1451.31805801 C115.34983679 1452.90044048 115.34983679 1452.90044048 113.77804184 1454.86580276 C110.0023436 1459.31205712 105.98098963 1463.43694855 101.8521843 1467.554142 C101.07408905 1468.33398956 100.2959938 1469.11383713 99.49431992 1469.91731644 C96.94723683 1472.46876592 94.39655534 1475.01658175 91.8455925 1477.56415176 C90.06662248 1479.34379591 88.28780089 1481.12358843 86.50912094 1482.90352249 C82.79469481 1486.61941817 79.07852426 1490.33356038 75.36097336 1494.0463295 C71.06289681 1498.33894138 66.76846687 1502.63517622 62.47586602 1506.93326324 C58.33638505 1511.07782239 54.19410545 1515.21957389 50.05061913 1519.3601284 C48.29034894 1521.11973028 46.53082466 1522.88007867 44.77205086 1524.64117622 C42.32330289 1527.09245143 39.87139379 1529.54051928 37.41859055 1531.98773575 C36.68871933 1532.7196312 35.95884811 1533.45152664 35.20685959 1534.20560074 C34.54109406 1534.86854645 33.87532852 1535.53149216 33.18938828 1536.21452713 C32.61037608 1536.7931623 32.03136389 1537.37179747 31.43480587 1537.96796703 C29.95887375 1539.31805801 29.95887375 1539.31805801 27.95887375 1540.31805801 C27.95887375 1540.97805801 27.95887375 1541.63805801 27.95887375 1542.31805801 C26.63887375 1542.97805801 25.31887375 1543.63805801 23.95887375 1544.31805801 C23.95887375 1544.97805801 23.95887375 1545.63805801 23.95887375 1546.31805801 C23.34012375 1546.60680801 22.72137375 1546.89555801 22.08387375 1547.19305801 C19.8256161 1548.25525843 19.8256161 1548.25525843 17.95887375 1550.31805801 C17.46941378 1559.32747012 20.57235688 1569.07125027 22.353405 1577.88446426 C22.70074553 1579.62059411 23.04772189 1581.35679685 23.39435959 1583.09306717 C24.32171419 1587.73054483 25.25551398 1592.36670147 26.19104004 1597.00253677 C26.77304591 1599.88885069 27.35329474 1602.77551233 27.93296432 1605.6622963 C34.41181097 1637.92301981 41.05844581 1670.14462273 47.95887375 1702.31805801 C48.33684395 1704.08367434 48.71477528 1705.84929899 49.09266281 1707.61493301 C50.87484996 1715.93490591 52.67201982 1724.25147264 54.48820114 1732.56409073 C55.56067824 1737.47675445 56.62057288 1742.39201702 57.67522812 1747.30853653 C58.46806839 1750.99932581 59.26632221 1754.68893301 60.06547165 1758.37836075 C60.44392124 1760.13066088 60.82030703 1761.88340841 61.19431686 1763.63666153 C64.8241878 1780.63828597 69.79161046 1797.03743207 75.18348312 1813.55829239 C75.68138351 1815.09646622 75.68138351 1815.09646622 76.1893425 1816.66571426 C76.62863083 1818.01161636 76.62863083 1818.01161636 77.07679367 1819.3847084 C78.16492744 1823.00328778 79.0635464 1826.64704383 79.95887375 1830.31805801 C163.96745287 1822.8110302 246.99625787 1804.81704392 347.95887375 1765.31805801 C349.17317062 1764.81193985 350.3874675 1764.30582169 351.63856125 1763.78436661 C371.76842434 1755.3668838 391.44591139 1746.0745392 410.95887375 1736.31805801 C411.88500473 1735.85499252 411.88500473 1735.85499252 412.82984543 1735.38257217 C428.66492272 1727.44807154 444.09463583 1718.95838925 459.30799484 1709.89178848 C461.74172633 1708.44697055 464.18471379 1707.02032158 466.634655 1705.60321426 C476.62000574 1699.81962002 486.32733499 1693.67146957 495.95887375 1687.31805801 C496.57939621 1686.91119766 497.19991867 1686.50433731 497.83924484 1686.08514786 C514.62579278 1675.07587628 531.0011026 1663.49601405 546.95887375 1651.31805801 C548.06421923 1650.4806557 549.16968347 1649.6434101 550.27528 1648.80633926 C558.36844102 1642.65415576 566.25604992 1636.25927998 574.12098312 1629.81952286 C575.76542938 1628.4760924 577.41641327 1627.1406737 579.06824875 1625.80633926 C584.39617548 1621.49433076 589.55802286 1617.04906874 594.6268425 1612.43524551 C596.71711264 1610.53754632 598.8287349 1608.67072387 600.95887375 1606.81805801 C605.6743961 1602.70491776 610.32332781 1598.52097409 614.95887375 1594.31805801 C615.86113693 1593.50264542 616.76340012 1592.68723282 617.69300461 1591.84711075 C626.55268606 1583.78537126 635.05129493 1575.379272 643.50867844 1566.89862442 C645.84770856 1564.55419125 648.19209572 1562.2152093 650.53699875 1559.87665176 C652.05034061 1558.36264967 653.56337256 1556.84833771 655.07606125 1555.33368301 C655.76473282 1554.64703568 656.45340439 1553.96038834 657.16294479 1553.2529335 C661.06957483 1549.32759544 664.80201744 1545.30229131 668.41254807 1541.1024971 C670.81182203 1538.33376715 673.32768653 1535.67710888 675.83387375 1533.00555801 C680.37235899 1528.13220252 684.65236172 1523.11501824 688.822155 1517.91962051 C690.91769868 1515.36819073 693.09850529 1512.93479028 695.33387375 1510.50555801 C700.3350935 1505.00335252 704.8805167 1499.17896199 709.42274094 1493.29999161 C711.03302427 1491.22238828 712.65492331 1489.15427853 714.27918625 1487.08758926 C726.72799834 1471.22097408 738.68492248 1455.04115769 749.95887375 1438.31805801 C750.37056808 1437.71074844 750.78226242 1437.10343887 751.20643234 1436.47772598 C773.78788119 1403.14661317 793.84216461 1368.25967017 811.95887375 1332.31805801 C812.25751328 1331.7265596 812.5561528 1331.13506119 812.86384201 1330.52563858 C841.59636203 1273.53995516 863.31954787 1213.15161685 878.95887375 1151.31805801 C879.14085312 1150.598741 879.32283249 1149.87942398 879.51032639 1149.13830948 C900.18342047 1067.07239053 908.5176046 982.16069067 816.95887375 540.31805801 C816.27639572 540.33376846 815.59391769 540.34947891 814.89075851 540.36566544 C792.72098348 540.79461773 770.7531135 539.54523901 748.63856125 538.07196426 C731.73275515 536.94814367 714.85031759 536.22922496 697.91041183 535.92990494 C681.83260497 535.63622397 665.77135893 535.14173276 649.70887375 534.38055801 C648.45451523 534.32413635 648.45451523 534.32413635 647.17481613 534.26657486 C644.76389103 534.15670244 642.3535875 534.03771672 639.94324875 533.91571426 C639.26870651 533.88546158 638.59416428 533.85520889 637.89918137 533.82403946 C633.09179496 533.56432713 628.36035404 532.99333904 623.58753586 532.36175919 C615.24833419 531.27400086 606.90729675 530.68390293 598.51516151 530.17807579 C595.81822606 530.01528705 593.1217594 529.84601565 590.42531967 529.67522049 C586.54833459 529.42996036 582.67123335 529.18669175 578.79401779 528.94510269 C544.6107339 526.81023974 510.48021906 524.35125437 476.37220383 521.2350502 C475.70378181 521.17400541 475.03535978 521.11296062 474.34668255 521.05006599 C471.18042352 520.76086805 468.01418149 520.47149743 464.84801865 520.18124771 C455.89211599 519.37187094 446.94177551 518.73638345 437.95887375 518.31805801 Z M-14.57237625 1580.68915176 C-15.56697095 1581.70641149 -16.55634762 1582.72879269 -17.54112625 1583.75555801 C-22.79927843 1589.1971341 -22.79927843 1589.1971341 -25.04112625 1590.31805801 C-25.04112625 1590.97805801 -25.04112625 1591.63805801 -25.04112625 1592.31805801 C-25.6237825 1592.57200333 -26.20643875 1592.82594864 -26.80675125 1593.08758926 C-29.28300658 1594.45126134 -30.84633251 1595.96031005 -32.79112625 1598.00555801 C-36.68744774 1602.01173819 -40.7871048 1605.69761422 -45.04112625 1609.31805801 C-43.63952049 1613.03402152 -41.9569392 1616.4376813 -40.021595 1619.90399551 C-39.41791092 1620.98825821 -38.81422684 1622.0725209 -38.1922493 1623.18964005 C-37.53785022 1624.35752558 -36.88330571 1625.52532963 -36.22862625 1626.69305801 C-35.55242935 1627.90373697 -34.87640617 1629.11451298 -34.20055008 1630.32538223 C-32.48070216 1633.40411572 -30.75654923 1636.48041146 -29.03038406 1639.55560684 C-28.09457301 1641.22283783 -27.15962046 1642.89055061 -26.22472 1644.55829239 C-20.40788468 1654.92656946 -14.56086539 1665.27313531 -8.46178055 1675.47870255 C-5.16920097 1681.00977034 -2.10010435 1686.6551242 0.95887375 1692.31805801 C6.91873122 1703.34323904 12.87727985 1714.3473 19.30286789 1725.10980606 C22.3702787 1730.26243965 25.27158989 1735.4934821 28.14637375 1740.75555801 C31.70895342 1747.259628 35.46886865 1753.40076653 39.95887375 1759.31805801 C41.13223948 1755.87628497 40.77064144 1753.73015779 39.77137375 1750.26727676 C39.48882736 1749.27228165 39.20628098 1748.27728653 38.91517258 1747.25214005 C38.44180466 1745.64508194 38.44180466 1745.64508194 37.95887375 1744.00555801 C37.63491623 1742.87746719 37.31095871 1741.74937637 36.9771843 1740.58710098 C34.98229318 1733.68263912 32.8936847 1726.80916774 30.77137375 1719.94305801 C25.08387641 1701.52507312 20.09517903 1682.89526882 14.95887375 1664.31805801 C14.40272155 1662.30715303 13.84656921 1660.29624808 13.29041672 1658.28534317 C12.1718389 1654.24032789 11.05354939 1650.19523302 9.93543625 1646.15008926 C7.77672569 1638.34056202 5.61620136 1630.53153729 3.45447922 1622.72284317 C2.48852663 1619.23332874 1.52402865 1615.74341823 0.56092453 1612.25311661 C-0.48633409 1608.45906778 -1.5383808 1604.6663814 -2.5945015 1600.87479019 C-2.9690957 1599.52698299 -3.34202113 1598.17871061 -3.7130928 1596.82992935 C-5.46559177 1590.46320441 -7.21075939 1584.29523027 -10.04112625 1578.31805801 C-12.37590852 1578.09017756 -12.37590852 1578.09017756 -14.57237625 1580.68915176 Z " fill="#000000" transform="translate(1302.0411262512207,902.681941986084)"/>
<path d="M0 0 C4.455 1.98 4.455 1.98 9 4 C8.34 5.65 7.68 7.3 7 9 C5.1875 8.8125 5.1875 8.8125 3 8 C0.85802506 5.09303401 0 3.64478912 0 0 Z " fill="#000000" transform="translate(400,978)"/>
</svg>
