<?xml version="1.0" encoding="UTF-8"?>
<svg version="1.1" xmlns="http://www.w3.org/2000/svg" width="2480" height="3508">
<path d="M0 0 C5.29889464 0.42295394 8.49484947 2.40038377 12.5 5.6875 C13.09441895 6.16501709 13.68883789 6.64253418 14.30126953 7.13452148 C19.05701126 11.03946538 23.50826815 15.23005891 27.875 19.5625 C28.48794922 20.16989014 29.10089844 20.77728027 29.73242188 21.40307617 C34 25.74247631 34 25.74247631 34 28 C34.66 28 35.32 28 36 28 C37.48651123 29.49058533 37.48651123 29.49058533 39.19824219 31.53881836 C49.95528685 44.181417 61.74923486 55.93580589 73.48095703 67.66625977 C75.76753376 69.95505074 78.04593275 72.2517878 80.32421875 74.54882812 C87.9060423 82.16031789 95.46779509 89.45075399 104 96 C105.1135083 96.89513306 105.1135083 96.89513306 106.24951172 97.80834961 C112.21464541 102.57369157 118.50594932 106.79690966 124.875 111 C125.88691406 111.67289063 126.89882813 112.34578125 127.94140625 113.0390625 C138.44722579 120.00707085 149.11311952 126.70958564 159.8125 133.375 C166.29654671 137.41955822 172.77263143 141.47148797 179.1875 145.625 C194.67055768 155.62252455 210.44204834 165.14349371 226.34960938 174.44775391 C228.91900701 175.95256509 231.48321972 177.46590142 234.046875 178.98046875 C242.57899182 183.99855669 251.17502095 188.71010836 260.0703125 193.05078125 C263.40708708 194.68601628 266.67661495 196.42511208 269.94189453 198.19799805 C289.53615813 208.80865206 310.13700508 217.25233615 330.74023438 225.66699219 C338.43262968 228.81262418 346.08664022 232.02745931 353.69140625 235.37890625 C362.04488869 239.0537713 370.475884 242.52025625 378.9375 245.9375 C379.71714111 246.25303833 380.49678223 246.56857666 381.30004883 246.89367676 C400.03735228 254.47280016 418.85953603 261.83348954 437.71362305 269.11657715 C439.86223123 269.94676815 442.01027346 270.77840698 444.15820312 271.61035156 C461.96468988 278.49989988 479.90679611 284.90490273 498 291 C499.20060059 291.40524902 500.40120117 291.81049805 501.63818359 292.22802734 C518.47956084 297.90385061 535.36637038 303.34377931 552.39770508 308.42089844 C557.83864635 310.04421307 563.27129993 311.69307512 568.69921875 313.359375 C583.66477108 317.94694867 598.64444944 322.35115296 613.78125 326.34765625 C620.20537655 328.04392578 626.60412199 329.82550648 633 331.625 C634.03809814 331.91697266 635.07619629 332.20894531 636.14575195 332.50976562 C638.15532276 333.07518279 640.16484582 333.6407697 642.17431641 334.20654297 C647.07471495 335.58258369 651.98042704 336.93942577 656.88647461 338.29516602 C661.28951217 339.51488191 665.67730427 340.77975567 670.0625 342.0625 C675.81654306 343.71786337 681.60423296 345.10224057 687.43774414 346.4387207 C692.33612329 347.57387651 697.1676822 348.86267732 702 350.25 C714.20821666 353.72898971 726.57905489 356.59032429 738.92269897 359.54226685 C743.08070429 360.53706864 747.23522538 361.54467428 751.38671875 362.56640625 C768.23950589 366.69916263 785.19301434 370.33459127 802.15966797 373.96337891 C809.27062086 375.48496932 816.37823212 377.0220093 823.48577881 378.55941772 C825.81347859 379.06271159 828.14134457 379.56523089 830.46923828 380.06762695 C837.71875958 381.6332497 844.96589069 383.20852785 852.20703125 384.8125 C876.28470541 390.14091245 900.43909283 395.05117074 924.67822266 399.59155273 C929.71781505 400.54242868 934.73486044 401.57280134 939.74926758 402.64819336 C952.45568657 405.36635033 965.21647696 407.7389868 978 410.0625 C978.90928253 410.22826538 979.81856506 410.39403076 980.75540161 410.56481934 C994.15664737 413.00379864 1007.57961562 415.293388 1021.01953125 417.50869751 C1025.82601345 418.3010013 1030.63173174 419.09791037 1035.4375 419.89453125 C1036.37574112 420.05002441 1037.31398224 420.20551758 1038.28065491 420.36572266 C1056.55531019 423.39554782 1074.82057804 426.46599958 1093.0625 429.6875 C1105.75434397 431.92886094 1118.45360678 434.07723797 1131.18359375 436.09326172 C1138.17636122 437.20582895 1145.15799143 438.36263307 1152.1328125 439.58203125 C1180.68299671 444.56684094 1209.31816314 448.84626362 1238 453 C1239.89008789 453.27384521 1239.89008789 453.27384521 1241.81835938 453.55322266 C1244.4204938 453.93022532 1247.02263617 454.30717306 1249.62478638 454.68406677 C1252.21015992 455.05861238 1254.79550781 455.43333507 1257.38082886 455.8082428 C1263.53222284 456.70026972 1269.68390866 457.59011582 1275.83642578 458.47436523 C1278.04981216 458.79405631 1280.26319146 459.11379649 1282.4765625 459.43359375 C1283.48746948 459.57800903 1284.49837646 459.72242432 1285.53991699 459.87121582 C1286.46856567 460.005802 1287.39721436 460.14038818 1288.35400391 460.27905273 C1289.15931549 460.39482162 1289.96462708 460.51059052 1290.79434204 460.62986755 C1292.90034863 460.98327746 1294.93720149 461.45107783 1297 462 C1297.32484375 460.86691406 1297.32484375 460.86691406 1297.65625 459.7109375 C1302.98767192 444.98753393 1311.14895386 430.85384128 1319.79101562 417.828125 C1321.01997322 415.96979816 1322.22238799 414.09620793 1323.421875 412.21875 C1328.97332261 403.61162242 1335.09741736 395.59758304 1341.60546875 387.69433594 C1342.86920522 386.15891382 1344.12270685 384.61508201 1345.375 383.0703125 C1349.81557507 377.59888965 1354.34877031 372.21053886 1358.90991211 366.83984375 C1364.10002067 360.7203669 1369.17605863 354.50868468 1374.20703125 348.2578125 C1378.84859825 342.51885225 1383.65752005 336.99321896 1388.65625 331.5625 C1390.68613667 329.34315724 1392.66495498 327.09327966 1394.625 324.8125 C1397.53487305 321.45863224 1400.61882557 318.33354773 1403.8125 315.25 C1405.67740274 313.33181432 1407.41690802 311.37457737 1409.16015625 309.34765625 C1413.3749846 304.49717833 1417.88454407 299.96875797 1422.4375 295.4375 C1423.24509766 294.62603516 1424.05269531 293.81457031 1424.88476562 292.97851562 C1429.22769127 288.64258906 1433.65234727 284.47824973 1438.30493164 280.47680664 C1440.29996802 278.7386567 1442.16246628 276.90315992 1444 275 C1448.31032623 270.63974721 1452.87640111 266.6622369 1457.54052734 262.68701172 C1459.29857685 261.1880218 1461.05577447 259.68804131 1462.8125 258.1875 C1463.41827881 257.67050537 1464.02405762 257.15351074 1464.64819336 256.62084961 C1468.38995524 253.41569505 1472.06076879 250.14826137 1475.6875 246.8125 C1480.07355646 242.78606164 1484.61741628 239.01890278 1489.25 235.28125 C1492.08099578 232.93281032 1494.79383598 230.49090098 1497.5 228 C1501.99460671 223.86393741 1506.63719402 219.97815991 1511.390625 216.14453125 C1513.78383775 214.17765431 1516.08503016 212.14770976 1518.375 210.0625 C1523.39833702 205.5539219 1528.74699579 201.49400792 1534.12548828 197.42431641 C1536.131299 195.90023465 1538.1269277 194.36350186 1540.12109375 192.82421875 C1599.54768476 147 1599.54768476 147 1623.8125 147 C1628.25719046 148.39441269 1629.4268908 150.1403362 1632 154 C1633.12548088 157.10906321 1633.00733761 158.8745914 1631.8125 161.9375 C1631.57144531 162.58589844 1631.33039063 163.23429687 1631.08203125 163.90234375 C1625.18316062 175.33806045 1611.42608726 182.1269908 1600.65625 188.30859375 C1586.65966204 196.34822908 1573.16309243 205.04688662 1560.08691406 214.50292969 C1557.92269934 216.05545247 1555.74182519 217.58152563 1553.5546875 219.1015625 C1539.30172394 228.97719239 1539.30172394 228.97719239 1526.4375 240.5625 C1525.633125 241.366875 1524.82875 242.17125 1524 243 C1523.34 243 1522.68 243 1522 243 C1522 243.66 1522 244.32 1522 245 C1521.34 245 1520.68 245 1520 245 C1520 245.66 1520 246.32 1520 247 C1519.34 247 1518.68 247 1518 247 C1517.76667969 247.56203125 1517.53335937 248.1240625 1517.29296875 248.703125 C1515.68062924 251.56734142 1513.6806438 253.47252021 1511.3125 255.75 C1507.67245898 259.3172402 1504.22305387 262.93572432 1500.91015625 266.8046875 C1498.49166116 269.58422583 1495.99700396 272.29127161 1493.5 275 C1489.26191271 279.60785329 1485.089127 284.2595806 1481 289 C1480.06262677 290.07172548 1479.12511408 291.14332898 1478.1875 292.21484375 C1472.75512298 298.45386469 1467.62741297 304.74158104 1462.84765625 311.50390625 C1461.07622916 313.89701811 1459.20424495 316.06213729 1457.1875 318.25 C1451.57705728 324.41820603 1446.84435471 331.22816619 1442 338 C1441.50419434 338.68690918 1441.00838867 339.37381836 1440.49755859 340.08154297 C1427.37268869 358.26711263 1416.43367502 377.14267986 1406 397 C1405.39260986 398.1446875 1405.39260986 398.1446875 1404.77294922 399.3125 C1397.98197499 412.1486008 1392.5280206 425.58421201 1387 439 C1386.60184082 439.96180176 1386.20368164 440.92360352 1385.79345703 441.91455078 C1381.70466635 451.82031123 1377.86780895 461.66079406 1375 472 C1376.70873517 473.70873517 1379.02904129 473.50602023 1381.3684082 473.81274414 C1382.53296036 473.96734604 1383.69751251 474.12194794 1384.89735413 474.28123474 C1386.18548508 474.44752884 1387.47361603 474.61382294 1388.80078125 474.78515625 C1390.15912885 474.96323449 1391.51744004 475.14159067 1392.87571716 475.32020569 C1396.57762787 475.80548399 1400.28032282 476.28451181 1403.98326111 476.76187897 C1406.31594141 477.06294416 1408.64841307 477.36557997 1410.98083496 477.66864014 C1436.71754112 481.0101298 1462.47778713 484.12184941 1488.25732422 487.11279297 C1491.06348459 487.43840746 1493.86963626 487.76409678 1496.67578125 488.08984375 C1497.36267784 488.169534 1498.04957443 488.24922424 1498.75728607 488.33132935 C1512.29865305 489.90368271 1525.82871551 491.56297719 1539.3571167 493.2432251 C1575.34609386 497.70894789 1611.29405305 502.01901169 1647.47869873 504.53930664 C1652.12747308 504.86316094 1656.77298002 505.21462534 1661.41796875 505.58984375 C1675.04155583 506.66986175 1688.62065108 507.2312733 1702.27828979 507.55380249 C1713.23300136 507.81833873 1724.08772691 508.33779164 1734.96435547 509.73828125 C1737.00694318 510.00089267 1739.05146602 510.23608274 1741.09765625 510.46875 C1747.01833926 511.20347798 1751.8125717 511.86183274 1757 515 C1758 518 1758 518 1757.39379883 520.08154297 C1754.47218868 524.10291494 1748.63288193 524.20472954 1744 525 C1739.6031516 525.53064217 1735.23827984 525.74830897 1730.8125 525.875 C1729.52166504 525.91544434 1728.23083008 525.95588867 1726.90087891 525.99755859 C1708.80863571 526.40870979 1690.73058027 524.83774295 1672.69584656 523.5811615 C1656.78826628 522.48647904 1640.8925694 521.89351731 1624.95153809 521.61184692 C1608.87373122 521.31816596 1592.81248518 520.82367474 1576.75 520.0625 C1575.49564148 520.00607834 1575.49564148 520.00607834 1574.21594238 519.94851685 C1571.80501728 519.83864442 1569.39471375 519.71965871 1566.984375 519.59765625 C1565.97256165 519.55227722 1565.97256165 519.55227722 1564.94030762 519.50598145 C1560.13292121 519.24626912 1555.4014803 518.67528103 1550.62866211 518.04370117 C1542.28946218 516.95594307 1533.94842122 516.365834 1525.55628777 515.86000061 C1522.85935478 515.69722983 1520.16288667 515.52802298 1517.46644592 515.3572998 C1513.58945865 515.1121215 1509.71235592 514.86891939 1505.83514404 514.62731934 C1474.48563591 512.66867781 1443.16440457 510.51434696 1411.875 507.75 C1410.44275985 507.62421948 1409.01051905 507.49844627 1407.57827759 507.37268066 C1393.36111747 506.12008245 1379.15888876 504.8083997 1365 503 C1361.35455296 527.87177341 1358.01408298 552.81992685 1359 578 C1359.05583252 579.57974609 1359.05583252 579.57974609 1359.11279297 581.19140625 C1359.71349554 596.24197623 1361.39982524 611.01317362 1363.75 625.875 C1363.86434387 626.60220245 1363.97868774 627.32940491 1364.09649658 628.0786438 C1365.78325012 638.67683372 1367.79731034 649.2067527 1369.85546875 659.73828125 C1386.13499912 743.04916977 1401.42116442 833.14399458 1388 918 C1387.80132324 919.28213379 1387.60264648 920.56426758 1387.39794922 921.88525391 C1384.37265358 940.99651408 1379.78936467 959.52863919 1374 978 C1373.68836914 979.00901367 1373.37673828 980.01802734 1373.05566406 981.05761719 C1365.95643746 1003.87280364 1356.98653612 1026.2948317 1347 1048 C1346.63148926 1048.8132373 1346.26297852 1049.62647461 1345.88330078 1050.46435547 C1336.04146268 1072.09282603 1324.31276617 1092.43668352 1310.98388672 1112.09912109 C1306.3102591 1118.99439544 1301.82229726 1125.98029246 1297.4375 1133.0625 C1290.70005187 1143.93100935 1283.7805864 1154.66873248 1276.74609375 1165.34716797 C1275.09599625 1167.85415334 1273.4537518 1170.36612507 1271.8125 1172.87890625 C1266.65290845 1180.73955893 1261.29354052 1188.35129598 1255.57617188 1195.81542969 C1250.34152974 1202.72556679 1245.71183998 1210.00584749 1241.03125 1217.296875 C1232.16843149 1231.09944398 1222.71598745 1244.27026213 1211.41333008 1256.16674805 C1207.08702413 1260.76849851 1203.3831629 1265.67731699 1199.7421875 1270.83203125 C1199.16726563 1271.54746094 1198.59234375 1272.26289063 1198 1273 C1197.34 1273 1196.68 1273 1196 1273 C1195.79761719 1273.67417969 1195.59523438 1274.34835937 1195.38671875 1275.04296875 C1193.49538295 1279.07604255 1190.77024109 1282.01421317 1187.8125 1285.3125 C1187.22243164 1285.98112061 1186.63236328 1286.64974121 1186.02441406 1287.33862305 C1184.86417925 1288.65260657 1183.70134573 1289.96430106 1182.53564453 1291.2734375 C1180.75757717 1293.27256188 1179.0023769 1295.29084533 1177.25 1297.3125 C1176.1684914 1298.5432725 1175.08513562 1299.77242414 1174 1301 C1173.38769531 1301.69351563 1172.77539062 1302.38703125 1172.14453125 1303.1015625 C1162.34268773 1314.09875279 1152.25833593 1324.87036252 1141.76171875 1335.20703125 C1139.33369456 1337.67812461 1137.17899753 1340.30829716 1135 1343 C1133.3125 1344.875 1133.3125 1344.875 1132 1346 C1131.34 1346 1130.68 1346 1130 1346 C1129.67 1346.99 1129.34 1347.98 1129 1349 C1128.34 1349 1127.68 1349 1127 1349 C1126.67 1349.99 1126.34 1350.98 1126 1352 C1125.34 1352 1124.68 1352 1124 1352 C1123.72729782 1352.59834656 1123.45459564 1353.19669312 1123.17362976 1353.81317139 C1122.0299039 1355.94427996 1120.93403106 1357.30322739 1119.22192383 1358.98925781 C1118.66406693 1359.54373596 1118.10621002 1360.09821411 1117.53144836 1360.66949463 C1116.62836189 1361.55239166 1116.62836189 1361.55239166 1115.70703125 1362.453125 C1114.77065071 1363.38170319 1114.77065071 1363.38170319 1113.81535339 1364.32904053 C1111.8191003 1366.30751147 1109.816312 1368.27918743 1107.8125 1370.25 C1105.19062918 1372.83514099 1102.57196122 1375.42346323 1099.95703125 1378.015625 C1099.33232941 1378.63473755 1098.70762756 1379.2538501 1098.06399536 1379.89172363 C1094.31302868 1383.63026885 1090.71077541 1387.44266233 1087.2878418 1391.48730469 C1085.62871463 1393.43611074 1083.84044497 1395.22301865 1082 1397 C1078.73581054 1400.2138744 1075.71985862 1403.56788892 1072.73828125 1407.04296875 C1070.40404295 1409.67095389 1067.91235704 1412.11588895 1065.3828125 1414.5546875 C1063.89145515 1415.97109777 1063.89145515 1415.97109777 1063 1418 C1062.34 1418 1061.68 1418 1061 1418 C1060.77699219 1418.55171875 1060.55398438 1419.1034375 1060.32421875 1419.671875 C1058.58445903 1422.7305676 1056.34235518 1424.8073812 1053.8125 1427.25 C1050.67171463 1430.28975311 1047.68125132 1433.3301453 1044.84089661 1436.6517334 C1040.91436042 1441.15903766 1036.75300603 1445.3947876 1032.52612305 1449.61914062 C1031.30045876 1450.84984283 1031.30045876 1450.84984283 1030.05003357 1452.10540771 C1027.37321825 1454.79165265 1024.69271313 1457.47417637 1022.01171875 1460.15625 C1020.1431404 1462.02804348 1018.27463668 1463.89991147 1016.40620422 1465.77185059 C1012.50381559 1469.680606 1008.59900687 1473.58693285 1004.69311523 1477.4921875 C1000.17534831 1482.00935065 995.66322337 1486.53209667 991.153629 1491.05741739 C986.80694179 1495.41872178 982.4547745 1499.77451747 978.1004734 1504.1282196 C976.25000437 1505.97987224 974.40116475 1507.83315469 972.5539608 1509.68806458 C969.98296567 1512.26878994 967.4057938 1514.84318246 964.8269043 1517.41601562 C964.05963013 1518.1889093 963.29235596 1518.96180298 962.50183105 1519.75811768 C961.45269783 1520.80095917 961.45269783 1520.80095917 960.38237 1521.86486816 C959.77386043 1522.4739225 959.16535086 1523.08297684 958.5384016 1523.71048737 C957 1525 957 1525 955 1525 C955 1525.66 955 1526.32 955 1527 C953.28515625 1528.69140625 953.28515625 1528.69140625 951.0625 1530.5625 C950.33160156 1531.18253906 949.60070313 1531.80257812 948.84765625 1532.44140625 C948.23792969 1532.95574219 947.62820313 1533.47007813 947 1534 C946.67 1534.33 946.34 1534.66 946 1535 C946.5305359 1544.33409803 948.54698169 1553.42412115 950.39453125 1562.56640625 C950.74187178 1564.3025361 951.08884814 1566.03873884 951.43548584 1567.77500916 C952.36284044 1572.41248682 953.29664023 1577.04864346 954.23216629 1581.68447876 C954.81417216 1584.57079267 955.39442099 1587.45745432 955.97409058 1590.34423828 C962.45293722 1622.6049618 969.09957206 1654.82656471 976 1687 C976.3779702 1688.76561633 976.75590153 1690.53124098 977.13378906 1692.296875 C978.91597622 1700.6168479 980.71314607 1708.93341462 982.52932739 1717.24603271 C983.60180449 1722.15869643 984.66169913 1727.07395901 985.71635437 1731.99047852 C986.50919465 1735.6812678 987.30744846 1739.370875 988.1065979 1743.06030273 C988.48504749 1744.81260287 988.86143328 1746.5653504 989.23544312 1748.31860352 C992.6487775 1764.30601198 997.20129064 1779.76830061 1002.25 1795.3125 C1002.94386787 1797.45405174 1003.63662579 1799.59596351 1004.328125 1801.73828125 C1004.6262207 1802.65649658 1004.92431641 1803.57471191 1005.23144531 1804.52075195 C1007.35546704 1811.37254378 1008.54792889 1817.95751908 1005.1875 1824.5625 C1003 1827 1003 1827 1000 1828 C999.67 1828.99 999.34 1829.98 999 1831 C997.62197239 1830.76726645 996.24762141 1830.51274601 994.875 1830.25 C994.10929687 1830.11078125 993.34359375 1829.9715625 992.5546875 1829.828125 C986.33163638 1827.81086684 982.77848109 1823.94089388 979.375 1818.5625 C978.74440674 1817.59111084 978.74440674 1817.59111084 978.10107422 1816.60009766 C972.92486639 1808.50553061 968.24377807 1800.11399932 963.54101562 1791.73925781 C959.53444133 1784.6173054 955.46531662 1777.53084016 951.39648438 1770.44433594 C950.09106958 1768.15940361 948.80177642 1765.86612385 947.515625 1763.5703125 C942.8621042 1755.35016918 937.7308152 1747.75616717 932.02929688 1740.22802734 C924.87434556 1730.68237744 918.37552706 1720.69478045 911.81542969 1710.73632812 C907.33557758 1703.94469899 902.7880228 1697.25381126 897.95703125 1690.70410156 C894.21415359 1685.53243078 890.7133787 1680.19579977 887.1875 1674.875 C886.38915043 1673.67369912 885.59072834 1672.47244644 884.79223633 1671.27124023 C879.2636047 1662.94546093 873.80007748 1654.57930317 868.39648438 1646.171875 C865.58384423 1641.79753116 862.7625812 1637.42881693 859.9375 1633.0625 C859.37635498 1632.19052979 858.81520996 1631.31855957 858.23706055 1630.42016602 C857.714104 1629.61248779 857.19114746 1628.80480957 856.65234375 1627.97265625 C855.95612915 1626.89383179 855.95612915 1626.89383179 855.24584961 1625.79321289 C853.988361 1623.87018957 853.988361 1623.87018957 852 1622 C851.33355469 1622.61746094 850.66710938 1623.23492188 849.98046875 1623.87109375 C845.2931797 1628.17815516 840.59181799 1632.38837878 835.625 1636.375 C830.59892795 1640.41471448 825.89105494 1644.73119625 821.23876953 1649.19091797 C817.21152986 1653 817.21152986 1653 815 1653 C815 1653.66 815 1654.32 815 1655 C813.44759659 1656.39325954 811.82970015 1657.71380128 810.1875 1659 C805.13301794 1663.04098694 800.32888033 1667.27187774 795.5625 1671.65234375 C792.71940365 1674.25707074 789.83264777 1676.80407307 786.91796875 1679.328125 C785.53439627 1680.53417188 784.1634837 1681.75479624 782.80078125 1682.984375 C782.08277344 1683.62890625 781.36476563 1684.2734375 780.625 1684.9375 C779.97789062 1685.52402344 779.33078125 1686.11054688 778.6640625 1686.71484375 C777 1688 777 1688 775 1688 C775 1688.66 775 1689.32 775 1690 C773.5390625 1691.5078125 773.5390625 1691.5078125 771.625 1693.125 C770.68527344 1693.93324219 770.68527344 1693.93324219 769.7265625 1694.7578125 C768 1696 768 1696 766 1696 C766 1696.66 766 1697.32 766 1698 C764.5390625 1699.5078125 764.5390625 1699.5078125 762.625 1701.125 C761.68527344 1701.93324219 761.68527344 1701.93324219 760.7265625 1702.7578125 C759 1704 759 1704 757 1704 C757 1704.66 757 1705.32 757 1706 C755.35546875 1707.62109375 755.35546875 1707.62109375 753.1875 1709.4375 C750.17536735 1711.97339332 750.17536735 1711.97339332 747.36328125 1714.72265625 C746 1716 746 1716 744 1716 C743.67 1716.99 743.34 1717.98 743 1719 C740.88699713 1720.76622354 738.77038603 1722.42379873 736.5625 1724.0625 C730.96288696 1728.3136348 726.05437328 1732.72976419 721.28125 1737.90625 C718.71822157 1740.25861856 716.16161567 1741.58272401 713 1743 C713 1731.60957508 730.1426217 1717.01240715 737.5625 1708.68359375 C739.08064758 1706.95793312 739.08064758 1706.95793312 740.5625 1704.78515625 C741.2740625 1703.90150391 741.2740625 1703.90150391 742 1703 C742.66 1703 743.32 1703 744 1703 C744.40943848 1702.10356781 744.40943848 1702.10356781 744.82714844 1701.18902588 C745.96699868 1699.0615941 747.07214943 1697.67459528 748.765625 1695.97558594 C749.59658691 1695.13516754 749.59658691 1695.13516754 750.44433594 1694.277771 C751.04020508 1693.68595032 751.63607422 1693.09412964 752.25 1692.484375 C753.17087402 1691.5606308 753.17087402 1691.5606308 754.11035156 1690.6182251 C755.40574483 1689.32147354 756.70365644 1688.02723343 758.00390625 1686.73535156 C759.99975068 1684.75024798 761.98466726 1682.75466409 763.96875 1680.7578125 C765.22852555 1679.49935789 766.48892101 1678.24152346 767.75 1676.984375 C768.64380371 1676.0844986 768.64380371 1676.0844986 769.55566406 1675.16644287 C773.77006753 1671 773.77006753 1671 776 1671 C776 1670.34 776 1669.68 776 1669 C777.46875 1667.5546875 777.46875 1667.5546875 779.5 1665.875 C782.46677361 1663.35742098 785.27574249 1660.77831024 788 1658 C791.20029522 1654.74970017 794.54224576 1651.75275755 798 1648.78125 C800.70846663 1646.36902191 803.23152645 1643.79591903 805.75 1641.1875 C807.68383773 1639.30737998 809.6572655 1637.54168713 811.6953125 1635.77734375 C817.0268199 1631.14904166 822.0928632 1626.24764053 827.171875 1621.34570312 C827.89632812 1620.65541016 828.62078125 1619.96511719 829.3671875 1619.25390625 C830.01800293 1618.62814697 830.66881836 1618.0023877 831.33935547 1617.35766602 C833 1616 833 1616 835 1616 C835 1615.34 835 1614.68 835 1614 C836.53125 1612.4921875 836.53125 1612.4921875 838.5 1610.875 C839.47453125 1610.06675781 839.47453125 1610.06675781 840.46875 1609.2421875 C840.9740625 1608.83226563 841.479375 1608.42234375 842 1608 C841.35526027 1604.60650532 840.05263913 1602.21963083 838.19140625 1599.32421875 C837.32588135 1597.97034058 837.32588135 1597.97034058 836.44287109 1596.58911133 C835.82234863 1595.63157959 835.20182617 1594.67404785 834.5625 1593.6875 C833.92650879 1592.69709717 833.29051758 1591.70669434 832.63525391 1590.6862793 C828.71404726 1584.59678877 824.72895588 1578.55331562 820.68530273 1572.54467773 C815.8091571 1565.27358031 811.18043399 1557.84588686 806.52783203 1550.43066406 C805.0327411 1548.05208859 803.53138623 1545.677611 802.02734375 1543.3046875 C796.20155319 1534.11188186 790.43493669 1524.88459343 784.71508789 1515.62548828 C781.4916602 1510.40752546 778.25602573 1505.19768026 775 1500 C771.18506178 1493.91011291 767.40172917 1487.80114631 763.625 1481.6875 C757.96822579 1472.53617746 752.24274693 1463.43011435 746.48388672 1454.34277344 C743.98516406 1450.39776806 741.492934 1446.44866484 739 1442.5 C738.00003061 1440.91664733 737.00003062 1439.33331399 736 1437.75 C734 1434.58333333 732 1431.41666667 730 1428.25 C729.50491943 1427.46616943 729.00983887 1426.68233887 728.49975586 1425.87475586 C727.50039817 1424.29234462 726.5012118 1422.70982517 725.50219727 1421.12719727 C722.99376781 1417.15384828 720.48233348 1413.18245935 717.96484375 1409.21484375 C711.71001477 1399.3498315 705.55220395 1389.43187716 699.48779297 1379.44873047 C697.89076401 1376.82021054 696.29129837 1374.19318439 694.69140625 1371.56640625 C689.94140339 1363.76669704 685.19334933 1355.96581294 680.453125 1348.16015625 C674.86171193 1338.95720218 669.24824924 1329.77001472 663.5625 1320.625 C658.21742854 1312.02424975 652.99783925 1303.35247029 647.80371094 1294.65991211 C643.19864179 1286.96571725 638.52324643 1279.31739234 633.8125 1271.6875 C627.11895999 1260.84394911 620.52888787 1249.94328129 614 1239 C605.7422311 1225.14704493 605.7422311 1225.14704493 597.25 1211.4375 C592.07867156 1203.2411723 587.16506907 1194.89319162 582.23754883 1186.54907227 C581.54120582 1185.36993823 580.84483531 1184.19082042 580.1484375 1183.01171875 C579.80207748 1182.42526077 579.45571747 1181.8388028 579.09886169 1181.23457336 C575.57097888 1175.2658355 572.00794009 1169.31836755 568.4375 1163.375 C567.8295459 1162.36236084 567.2215918 1161.34972168 566.59521484 1160.30639648 C563.38155013 1154.9560997 560.16171206 1149.60957189 556.9375 1144.265625 C555.9331189 1142.59814209 555.9331189 1142.59814209 554.90844727 1140.89697266 C553.6400507 1138.79130552 552.36984965 1136.68672376 551.09741211 1134.58349609 C547.70130535 1128.94234528 544.46824894 1123.2415731 541.34204102 1117.44677734 C539.66466882 1114.38863214 537.86252068 1111.44899108 536 1108.5 C533.00636376 1103.76007595 530.30202146 1098.91501321 527.63330078 1093.98486328 C524.81719967 1088.83842798 521.87518329 1083.76521493 518.9375 1078.6875 C518.28338135 1077.55521973 517.6292627 1076.42293945 516.95532227 1075.25634766 C512.2991347 1067.20551264 507.58617536 1059.18926483 502.84545898 1051.18798828 C493.68464059 1035.72464989 484.64236849 1020.20065666 475.83959961 1004.53051758 C471.49928416 996.82700493 467.02797633 989.20610232 462.48803711 981.61865234 C459.32750341 976.32003568 456.30913192 970.96495534 453.39233398 965.52807617 C451.99616451 962.99303587 450.51878229 960.52568683 449 958.0625 C446.87963054 954.57238283 444.98398244 951.04219969 443.1875 947.375 C439.79433358 940.46527928 435.99948703 933.80988558 432.19873047 927.11962891 C430.21528202 923.61243962 428.26486184 920.0870582 426.3125 916.5625 C413.80806896 894.00781713 413.80806896 894.00781713 401 871.625 C396.50337003 863.89469475 392.16084512 856.10410008 387.9921875 848.19140625 C387.24483774 846.77341322 386.49744032 845.3554453 385.75 843.9375 C385.37029053 843.21618896 384.99058105 842.49487793 384.59936523 841.75170898 C381.78956901 836.43548335 378.88151229 831.18033901 375.9375 825.9375 C372.43843419 819.69429233 369.12841707 813.38943907 365.96850586 806.96850586 C363.56676937 802.09689424 361.05880315 797.29081152 358.5 792.5 C354.1842935 784.40506477 350.07126901 776.21994558 346 768 C344.3364496 764.64427605 342.66898062 761.29052597 341 757.9375 C340.62109619 757.17139404 340.24219238 756.40528809 339.85180664 755.6159668 C337.69307535 751.2799452 335.46373345 746.99276359 333.15672302 742.73347473 C328.73396172 734.55144183 324.74731836 726.23253498 320.9375 717.75 C320.62318024 717.05389618 320.30886047 716.35779236 319.98501587 715.64059448 C295.8661393 662.21478031 276.27871124 608.44621599 264 551 C263.8050293 550.10845215 263.61005859 549.2169043 263.40917969 548.29833984 C255.04850251 509.84402062 274.5094715 468.89682069 286.18103027 432.75636292 C288.23336137 426.39635942 290.26474685 420.03016857 292.2734375 413.65625 C292.5184903 412.87869354 292.76354309 412.10113708 293.01602173 411.30001831 C293.47332393 409.84830765 293.93053406 408.39656798 294.38763428 406.9447937 C304.85717225 373.69490601 304.85717225 373.69490601 313 368 C318.04062497 366.31979168 321.72987129 366.50486508 326.6875 368.4375 C334.2984409 373.32565656 335.6309164 385.40870874 337.75 393.5 C341.15331963 406.16207994 344.97270996 418.64495898 349.06054688 431.10351562 C349.95434504 433.85923846 350.81947518 436.62185135 351.671875 439.390625 C356.53428362 455.14006387 362.25250758 470.55840703 368 486 C376.63941393 509.22706597 384.82044826 532.59814788 392.92724609 556.015625 C395.97820257 564.82698419 399.03922679 573.63482908 402.10632324 582.44058228 C403.02709202 585.08577947 403.94574455 587.73170449 404.86425781 590.37768555 C410.52373908 606.64900317 416.50934116 622.79366071 422.61523438 638.90234375 C424.77969502 644.6454317 426.85386503 650.41379194 428.87890625 656.20703125 C431.86658749 664.73020593 435.08239038 673.1531574 438.375 681.5625 C438.67068878 682.31990479 438.96637756 683.07730957 439.27102661 683.85766602 C451.45608821 715.06780426 463.99808688 746.12128767 477 777 C477.26403625 777.62755188 477.52807251 778.25510376 477.80010986 778.90167236 C481.18294961 786.94174764 484.58267356 794.97452415 488 803 C488.35658691 803.83756836 488.71317383 804.67513672 489.08056641 805.53808594 C491.24696938 810.62068241 493.42569193 815.69789725 495.61083984 820.77246094 C496.63313311 823.14763088 497.65425923 825.52328425 498.67431641 827.89941406 C507.87338455 849.32199921 517.26754055 870.64897426 526.82389832 891.91441345 C529.30041465 897.42961851 531.75896384 902.95258151 534.20703125 908.48046875 C534.54923706 909.2531308 534.89144287 910.02579285 535.24401855 910.8218689 C535.92816708 912.36671714 536.61231019 913.91156779 537.29644775 915.4564209 C542.62160358 927.47712768 548.0121535 939.46158119 553.55273438 951.38500977 C558.11806145 961.21676771 562.57600837 971.09573801 567.01806641 980.98364258 C572.87630041 994.01258879 578.93431158 1006.93521892 585.19381714 1019.77606201 C590.38272957 1030.4273366 595.48076631 1041.11318052 600.4375 1051.875 C606.83150815 1065.74920341 613.50129245 1079.48267387 620.18930054 1093.21676636 C623.12952545 1099.25797281 626.04098662 1105.31271111 628.9375 1111.375 C629.37505615 1112.28999268 629.8126123 1113.20498535 630.26342773 1114.14770508 C632.32150415 1118.45842971 634.366468 1122.77480186 636.390625 1127.1015625 C639.73485561 1134.24051994 643.11005423 1141.32235564 646.875 1148.25 C650.05772377 1154.11169521 652.96986203 1160.06268356 655.81640625 1166.09375 C662.07306786 1179.25679392 668.5711723 1192.29577717 675.09790039 1205.32617188 C676.73972642 1208.60410578 678.37789133 1211.88385407 680.01512909 1215.16408157 C686.53449095 1228.22208583 693.09516859 1241.25142236 699.95922852 1254.1328125 C701.99979362 1257.97166992 703.94862992 1261.85281737 705.875 1265.75 C709.46907179 1272.98887773 713.19282709 1280.15502475 716.94482422 1287.31323242 C720.03154095 1293.20904234 723.09346399 1299.11674124 726.12890625 1305.0390625 C732.74500195 1317.94330754 739.36730415 1330.82477561 746.39135742 1343.51342773 C751.79781077 1353.33789953 756.87102569 1363.33603097 761.95117188 1373.33203125 C765.61373244 1380.51640639 769.41546135 1387.55365959 773.5324707 1394.49267578 C775.22880994 1397.39092963 776.73809142 1400.34626387 778.1875 1403.375 C781.5468622 1410.24721752 785.21055633 1416.93847889 788.89550781 1423.64038086 C793.11918102 1431.34104679 797.23809788 1439.09355692 801.33972168 1446.85955811 C807.13355694 1457.82648358 813.02646291 1468.71351926 819.18725586 1479.48022461 C823.7626139 1487.50363733 828.11780038 1495.63903997 832.45352173 1503.79330444 C837.30423847 1512.9099594 842.31057525 1521.92566783 847.42871094 1530.89477539 C851.24918601 1537.61139795 854.88992174 1544.40519618 858.45849609 1551.25830078 C861.20856925 1556.52861389 864.03183153 1561.75127508 866.9375 1566.9375 C867.30327148 1567.59419678 867.66904297 1568.25089355 868.04589844 1568.92749023 C869.8508347 1572.1258069 871.76610075 1575.089808 874 1578 C885.29241486 1567.5127903 885.29241486 1567.5127903 896.26953125 1556.69921875 C898.17953154 1554.82371057 900.16499545 1553.06583574 902.1875 1551.3125 C902.83976562 1550.74015625 903.49203125 1550.1678125 904.1640625 1549.578125 C905.7651885 1548.20183797 907.41053388 1546.87733018 909.0625 1545.5625 C911.37528794 1543.07931842 911.37528794 1543.07931842 910.80102539 1539.58178711 C909.94141036 1534.01572669 908.51414663 1528.58066421 907.12109375 1523.12890625 C906.83336594 1521.98652496 906.54563812 1520.84414368 906.24919128 1519.66714478 C905.6343158 1517.22764902 905.01735966 1514.78867691 904.39849854 1512.35018921 C903.10488212 1507.25151658 901.82230907 1502.15008859 900.53936768 1497.04872131 C899.90276074 1494.51746294 899.26567819 1491.98632414 898.62811279 1489.45530701 C889.9028198 1454.80720246 881.86736423 1420.02156292 874.43481445 1385.07470703 C872.52023712 1376.07592008 870.58838234 1367.08166425 868.60546875 1358.09765625 C868.40736099 1357.19958252 868.20925323 1356.30150879 868.00514221 1355.3762207 C867.06767614 1351.13004659 866.12698318 1346.8846182 865.18188477 1342.64013672 C860.24290197 1320.37195988 855.99682378 1297.95919294 851.6875 1275.5625 C851.45011108 1274.32876648 851.21272217 1273.09503296 850.96813965 1271.82391357 C849.99674181 1266.77441334 849.02545189 1261.72489268 848.0552063 1256.6751709 C846.8057503 1250.17504854 845.54973739 1243.67629288 844.28196716 1237.17971802 C839.83045259 1214.35938688 835.87394614 1191.49533108 832.2182312 1168.53453064 C831.15382533 1161.88154444 830.00992751 1155.24502128 828.83764648 1148.61035156 C816.32788398 1077.75787654 808.34334976 1006.21003292 799.82122803 934.79736328 C792.71836533 875.28754656 784.94370239 815.87107264 776.87915325 756.48441982 C776.25805183 751.90870003 775.64055236 747.33251395 775.02636719 742.75585938 C769.79794615 703.80418671 762.70625777 665.43477546 754.62225342 626.972229 C754.19884165 624.94977848 753.77893033 622.92659265 753.36212158 620.902771 C752.7296499 617.83324476 752.08656434 614.7661005 751.44140625 611.69921875 C751.16259865 610.32984917 751.16259865 610.32984917 750.87815857 608.93281555 C749.04398799 600.31907537 746.2866424 592.06216288 742.22265625 584.23046875 C741.71573242 583.25062012 741.20880859 582.27077148 740.68652344 581.26123047 C740.1505957 580.24689941 739.61466797 579.23256836 739.0625 578.1875 C738.49692383 577.10871582 737.93134766 576.02993164 737.34863281 574.91845703 C731.59812191 564.0579703 725.36180452 553.51024471 719 543 C718.2008039 541.66727721 717.40253807 540.33399585 716.60546875 539 C715.16971366 536.59761371 713.72963201 534.19793402 712.28515625 531.80078125 C710.61789888 529.03229709 708.96120616 526.25771912 707.30859375 523.48046875 C701.67696043 514.03032726 695.9512259 504.64409276 690.125 495.3125 C689.1976001 493.82568726 689.1976001 493.82568726 688.25146484 492.30883789 C680.70138836 480.18315505 680.70138836 480.18315505 671.9375 468.9375 C667.61470109 463.92670847 663.40605425 458.83739331 659.25 453.6875 C652.70489658 445.6149545 646.01593603 437.93799007 638.6875 430.5625 C638.06367432 429.9339209 637.43984863 429.3053418 636.79711914 428.65771484 C636.20793701 428.07070801 635.61875488 427.48370117 635.01171875 426.87890625 C634.48022217 426.3485376 633.94872559 425.81816895 633.40112305 425.27172852 C632.00611595 423.89056415 632.00611595 423.89056415 630 423 C630 422.34 630 421.68 630 421 C629.19175781 420.64421875 629.19175781 420.64421875 628.3671875 420.28125 C625.34963988 418.6479899 622.82041345 416.62406646 620.125 414.5 C609.48159408 406.22951056 598.84307655 398.68954589 587.00390625 392.21484375 C583.10469905 390.07900232 579.2983058 387.80936193 575.5 385.5 C562.60014289 377.70109964 549.35921818 370.56515473 536.07373047 363.44799805 C528.5995191 359.43218929 521.18732241 355.32029876 513.8125 351.125 C502.35496311 344.61093752 490.82066203 338.35849052 479.00584412 332.51266479 C473.69748231 329.87544944 468.43641189 327.15361769 463.18099976 324.41264343 C449.38401631 317.22535803 435.50478788 310.20980786 421.5859375 303.26171875 C420.64759441 302.79326727 419.70925133 302.32481579 418.7424736 301.84216881 C411.95474143 298.45441758 405.16506117 295.07058021 398.375 291.6875 C391.53743681 288.28067317 384.70061067 284.87238191 377.86546707 281.4607029 C375.18641317 280.124338 372.50613974 278.79044435 369.82577515 277.45671082 C359.81678164 272.46699591 349.88344163 267.35236147 340.00361633 262.11141968 C335.31744924 259.62906862 330.57617946 257.26692248 325.8125 254.9375 C318.92244443 251.53303377 312.18702718 247.93523386 305.51928711 244.11523438 C300.759539 241.39572457 295.90922505 238.9326209 290.984375 236.5234375 C286.55701247 234.26339642 282.28698327 231.74833223 278.0078125 229.22265625 C274.54139284 227.23798524 270.97161228 225.49460275 267.38671875 223.734375 C260.27784283 220.22575743 253.47746643 216.28001462 246.6875 212.1875 C245.50315701 211.478488 244.31850088 210.76999881 243.13354492 210.06201172 C240.80771908 208.67212119 238.48309502 207.28029791 236.15917969 205.88720703 C232.73958879 203.84443751 229.30542907 201.82830878 225.86450195 199.82177734 C217.12860106 194.72678791 208.53260139 189.42794808 200 184 C199.3409668 183.58169922 198.68193359 183.16339844 198.00292969 182.73242188 C186.40521109 175.35359168 175.04737744 167.63611307 163.71484375 159.85791016 C161.12829016 158.08779569 158.53456286 156.32886699 155.9375 154.57421875 C146.4298028 148.13962014 137.1264436 141.50645785 128.0078125 134.53125 C125.91875577 132.93803942 123.81964144 131.35881469 121.71875 129.78125 C113.64726584 123.6977089 105.83070111 117.41729723 98.2109375 110.77734375 C95.27636988 108.22253338 92.27640491 105.75820817 89.25 103.3125 C84.82097736 99.71595151 80.56335905 95.96794929 76.34375 92.12890625 C74.18493559 90.16798316 72.00731046 88.23295915 69.8125 86.3125 C69.17054688 85.75046875 68.52859375 85.1884375 67.8671875 84.609375 C66.65487812 83.56445561 65.43139248 82.53231416 64.1953125 81.515625 C60.30059751 78.29599394 57.01188307 74.84316229 53.7421875 70.9921875 C52.10926357 69.12494265 50.41070861 67.40737604 48.625 65.6875 C44.93812636 62.06602545 41.78398715 58.08683778 38.5546875 54.05859375 C35.13507234 49.96446735 31.50078098 46.08960078 27.80981445 42.23974609 C24 38.21121892 24 38.21121892 24 36 C23.34 36 22.68 36 22 36 C20.16017011 33.91365695 18.44461038 31.82503039 16.75 29.625 C16.25781982 28.99174805 15.76563965 28.35849609 15.25854492 27.70605469 C5 14.32107997 5 14.32107997 5 10 C4.34 10 3.68 10 3 10 C0.96564469 6.27034861 0 4.33094958 0 0 Z M910.671875 469.24609375 C907.29484781 472.7268016 904.09643779 476.26959327 901 480 C900.21625 480.89589844 899.4325 481.79179688 898.625 482.71484375 C887.85810421 495.06728241 878.13336166 508.40796636 869.01953125 522.01953125 C867.706142 523.95786007 866.33009678 525.85564348 864.88671875 527.69921875 C856.78345048 538.88508624 855.28709485 552.67084886 853 566 C852.83129395 566.98242676 852.66258789 567.96485352 852.48876953 568.97705078 C848.33730938 594.10478 847.70123971 619.6180663 847.5859375 645.03125 C847.56712438 647.72994823 847.5476191 650.42863323 847.5272522 653.12731934 C847.48625097 658.74077846 847.45162034 664.35424379 847.421875 669.96777344 C847.38062906 677.75075757 847.32784099 685.5336309 847.27261019 693.31652665 C847.11417222 715.77471951 846.97394752 738.2334981 846.94789505 760.692276 C846.94622891 762.11558638 846.94387651 763.5388962 846.94068527 764.96220398 C846.91431828 778.51646995 847.35050607 792.04901866 847.90820312 805.59033203 C847.98158434 808.31597572 847.99661226 811.02406493 847.98144531 813.74975586 C847.97108865 819.01291446 848.21361089 824.24268699 848.515625 829.49609375 C848.57114029 830.49597321 848.62665558 831.49585266 848.68385315 832.52603149 C848.86887872 835.83007526 849.05889408 839.1338026 849.25 842.4375 C849.31657806 843.59756561 849.38315613 844.75763123 849.45175171 845.95285034 C852.30673255 895.52875795 855.99739756 945.03218377 859.99771118 994.52668762 C860.50924079 1000.85752943 861.01833907 1007.18833396 861.49438477 1013.52197266 C862.87556482 1031.75882713 864.76472468 1049.93896684 866.6875 1068.125 C866.77477734 1068.9529155 866.86205467 1069.78083099 866.95197678 1070.63383484 C870.20443326 1101.48112332 873.80460095 1132.26493361 878 1163 C878.19021729 1164.40502777 878.19021729 1164.40502777 878.38427734 1165.83843994 C888.70918435 1242.06560881 902.1967423 1317.95289234 916.35424805 1393.54797363 C917.00148062 1397.00791502 917.64659008 1400.46824571 918.29101562 1403.92871094 C922.91136198 1428.73359701 927.63523069 1453.50637308 932.77197266 1478.20983887 C933.00279541 1479.3202655 933.00279541 1479.3202655 933.23828125 1480.453125 C933.38861816 1481.17632935 933.53895508 1481.89953369 933.69384766 1482.64465332 C935.92225204 1493.40488995 937.97164031 1504.20047609 940 1515 C940.33 1514.34 940.66 1513.68 941 1513 C941.66 1513 942.32 1513 943 1513 C943 1512.34 943 1511.68 943 1511 C943.639375 1510.731875 944.27875 1510.46375 944.9375 1510.1875 C947.33131686 1509.11332248 947.33131686 1509.11332248 948 1506 C948.99 1505.67 949.98 1505.34 951 1505 C951 1504.34 951 1503.68 951 1503 C951.99 1502.67 952.98 1502.34 954 1502 C954 1501.34 954 1500.68 954 1500 C954.639375 1499.731875 955.27875 1499.46375 955.9375 1499.1875 C958.33131686 1498.11332248 958.33131686 1498.11332248 959 1495 C959.99 1494.67 960.98 1494.34 962 1494 C962 1493.34 962 1492.68 962 1492 C963.32 1491.34 964.64 1490.68 966 1490 C966 1489.34 966 1488.68 966 1488 C966.99 1487.67 967.98 1487.34 969 1487 C969 1486.34 969 1485.68 969 1485 C969.66 1485 970.32 1485 971 1485 C972.40021121 1483.61267676 972.40021121 1483.61267676 973.87890625 1481.7421875 C976.99629014 1478.07439177 980.2889369 1474.63552153 983.71484375 1471.2578125 C984.21915924 1470.75916687 984.72347473 1470.26052124 985.24307251 1469.74676514 C987.34388848 1467.67299475 989.44887111 1465.60354268 991.55786133 1463.53808594 C993.11449651 1462.01146331 994.66500464 1460.47882953 996.21484375 1458.9453125 C997.13386475 1458.04312988 998.05288574 1457.14094727 998.99975586 1456.21142578 C1001.22360276 1454.24976336 1001.22360276 1454.24976336 1001 1452 C1001.66 1452 1002.32 1452 1003 1452 C1004.56864082 1450.4492093 1004.56864082 1450.4492093 1006.1875 1448.4375 C1009.18677493 1444.89003826 1012.33995132 1441.63477128 1015.71484375 1438.4453125 C1017.2214964 1437.07324261 1017.2214964 1437.07324261 1017 1435 C1017.99 1434.67 1018.98 1434.34 1020 1434 C1020 1433.34 1020 1432.68 1020 1432 C1020.66 1432 1021.32 1432 1022 1432 C1023.53992629 1430.49695171 1023.53992629 1430.49695171 1025.1328125 1428.5234375 C1028.90830505 1424.08386452 1032.86253877 1419.85004196 1036.875 1415.625 C1042.67358348 1409.49161459 1048.38825472 1403.30496087 1054 1397 C1055.43748087 1395.4166493 1056.87498155 1393.83331658 1058.3125 1392.25 C1062.90785505 1387.14493486 1067.36878306 1381.93053108 1071.828125 1376.70703125 C1075.03319293 1372.95487769 1078.26468397 1369.22607164 1081.5 1365.5 C1083.13275309 1363.6162786 1084.7651366 1361.73223747 1086.39746094 1359.84814453 C1087.45185409 1358.63215486 1088.50716792 1357.4169628 1089.56347656 1356.20263672 C1095.51581144 1349.35650679 1101.2977938 1342.4281027 1106.8515625 1335.25415039 C1110.1519644 1331.01424831 1113.5989413 1326.92837718 1117.125 1322.875 C1121.57216624 1317.75286172 1125.72737594 1312.49380252 1129.75 1307.02734375 C1132.12987523 1303.82525468 1134.58511644 1300.68905695 1137.0625 1297.5625 C1141.84971332 1291.50256107 1146.56195329 1285.38693178 1151.25 1279.25 C1152.24205444 1277.95557983 1152.24205444 1277.95557983 1153.25415039 1276.63500977 C1157.07120473 1271.62736726 1160.75419107 1266.54960038 1164.34277344 1261.37597656 C1166.34786695 1258.50126088 1168.40804821 1255.66990415 1170.47509766 1252.83959961 C1182.03110247 1237.00420972 1193.02339282 1220.77293727 1203.56494141 1204.24609375 C1205.12412121 1201.80573067 1206.69281025 1199.37161876 1208.26171875 1196.9375 C1220.41967348 1178.02015598 1232.09172192 1158.82174245 1242.85693359 1139.07568359 C1243.97506966 1137.04527077 1245.11734708 1135.03078709 1246.26953125 1133.01953125 C1285.89203605 1063.5638066 1315.57776711 985.67339078 1326 894 C1326.07057617 893.27748047 1326.14115234 892.55496094 1326.21386719 891.81054688 C1328.3054096 869.69995566 1327.59255672 847.02951054 1325 825 C1324.82259277 823.49252197 1324.82259277 823.49252197 1324.64160156 821.95458984 C1321.66451077 797.9143923 1315.8531541 773.91576115 1308 751 C1307.57124303 749.69543456 1307.14287312 748.39074185 1306.71484375 747.0859375 C1302.95233633 735.83191334 1298.24133321 725.02546134 1293.41796875 714.19189453 C1291.92412372 710.82919998 1290.44553921 707.46006086 1288.96875 704.08984375 C1284.41416675 693.72694405 1279.84515378 683.40586515 1274.67333984 673.33422852 C1271.44907577 667.02584838 1268.70039625 660.54641516 1266 654 C1263.8923361 656.66351891 1262.30281826 659.22376391 1260.90625 662.31640625 C1260.52162598 663.15308838 1260.13700195 663.98977051 1259.74072266 664.85180664 C1259.12656494 666.19359985 1259.12656494 666.19359985 1258.5 667.5625 C1253.9839969 677.22381264 1248.94090368 686.43016277 1243.45605469 695.5703125 C1241.91983202 698.13377461 1240.40056339 700.70681327 1238.8828125 703.28125 C1229.85483435 718.53682227 1229.85483435 718.53682227 1224.6328125 725.7265625 C1222.71738907 728.39349177 1220.92508371 731.12898995 1219.125 733.875 C1212.35348863 744.04523931 1204.90246526 753.42095563 1196.90234375 762.62890625 C1194.38572065 765.53207218 1191.96337271 768.50001042 1189.5625 771.5 C1184.96780406 777.16595474 1180.00345012 782.45262011 1175.015625 787.76953125 C1171.58221295 791.43261359 1168.27060044 795.19130591 1165 799 C1160.23577813 804.53225764 1155.33431572 809.92187539 1150.35083008 815.2565918 C1147.10758618 818.74319907 1144.01917839 822.31726592 1141 826 C1141 822.42424104 1142.08840607 820.94704065 1144 818 C1143.34 818 1142.68 818 1142 818 C1144.94637053 812.235362 1148.72357003 807.50495107 1152.87890625 802.55078125 C1156.53837633 798.73387693 1156.53837633 798.73387693 1158 794 C1158.66 794 1159.32 794 1160 794 C1161.32708554 792.09306177 1162.56079518 790.120836 1163.75 788.125 C1164.10562012 787.53219238 1164.46124023 786.93938477 1164.82763672 786.32861328 C1165.55114896 785.12124207 1166.27170003 783.91209137 1166.98925781 782.70117188 C1167.86522957 781.22683101 1168.75555354 779.76103542 1169.6484375 778.296875 C1204.03655585 721.89308299 1229.96641472 658.30983336 1250.74560547 595.76464844 C1251.96288372 592.11139218 1253.19930933 588.46519522 1254.44140625 584.8203125 C1260.02301015 568.36348961 1265.19633911 551.79558548 1270.29516602 535.18408203 C1273.65262556 524.26015344 1277.10751322 513.38351763 1280.81689453 502.57275391 C1281.11063965 501.71343262 1281.40438477 500.85411133 1281.70703125 499.96875 C1281.9594458 499.24107422 1282.21186035 498.51339844 1282.47192383 497.76367188 C1283.09561229 495.98751237 1283.09561229 495.98751237 1283 494 C1282.04853088 493.89248413 1281.09706177 493.78496826 1280.11676025 493.67419434 C1267.82756198 492.28525018 1255.53870288 490.8933199 1243.25 489.5 C1242.25873989 489.38763378 1241.26747978 489.27526756 1240.24618149 489.15949631 C1218.50509173 486.6946289 1196.76477273 484.22449544 1175.03515625 481.66015625 C1174.26738987 481.56957821 1173.49962349 481.47900017 1172.70859146 481.38567734 C1166.21588479 480.61927186 1159.72340192 479.85100461 1153.23181152 479.07519531 C1138.12810938 477.27021289 1123.02264779 475.54189749 1107.88777161 474.01698303 C1095.27009731 472.743834 1082.68713992 471.19967108 1070.10205078 469.64111328 C1052.40148872 467.4529312 1034.67549823 465.55669711 1016.93563843 463.72058105 C1012.07202892 463.21689422 1007.20949566 462.70415955 1002.34765625 462.18359375 C989.09710555 460.77274375 975.83901871 459.511549 962.5625 458.375 C961.83310211 458.3124704 961.10370422 458.2499408 960.35220337 458.18551636 C956.88386086 457.88951326 953.41517198 457.59994167 949.9453125 457.32226562 C947.31896174 457.10773697 944.69386065 456.877306 942.0703125 456.63085938 C940.84183594 456.52322266 939.61335938 456.41558594 938.34765625 456.3046875 C937.2687915 456.20397949 936.18992676 456.10327148 935.07836914 455.99951172 C924.90387177 456.00112557 917.51178074 462.4750954 910.671875 469.24609375 Z M912.46875 1565.37109375 C911.4741553 1566.38835348 910.48477863 1567.41073468 909.5 1568.4375 C904.24184783 1573.87907609 904.24184783 1573.87907609 902 1575 C902 1575.66 902 1576.32 902 1577 C901.41734375 1577.25394531 900.8346875 1577.50789063 900.234375 1577.76953125 C897.75811967 1579.13320333 896.19479374 1580.64225203 894.25 1582.6875 C890.35367851 1586.69368018 886.25402145 1590.37955621 882 1594 C883.40160576 1597.7159635 885.08418705 1601.11962329 887.01953125 1604.5859375 C887.62321533 1605.6702002 888.22689941 1606.75446289 888.84887695 1607.87158203 C889.50327603 1609.03946756 890.15782055 1610.20727161 890.8125 1611.375 C891.4886969 1612.58567896 892.16472008 1613.79645497 892.84057617 1615.00732422 C894.56042409 1618.0860577 896.28457703 1621.16235344 898.01074219 1624.23754883 C898.94655324 1625.90477982 899.8815058 1627.5724926 900.81640625 1629.24023438 C906.63324157 1639.60851145 912.48026086 1649.95507729 918.5793457 1660.16064453 C921.87192528 1665.69171232 924.9410219 1671.33706618 928 1677 C933.95985747 1688.02518103 939.9184061 1699.02924198 946.34399414 1709.79174805 C949.41140495 1714.94438164 952.31271614 1720.17542409 955.1875 1725.4375 C958.75007967 1731.94156999 962.5099949 1738.08270851 967 1744 C968.17336573 1740.55822696 967.81176769 1738.41209977 966.8125 1734.94921875 C966.52995361 1733.95422363 966.24740723 1732.95922852 965.95629883 1731.93408203 C965.48293091 1730.32702393 965.48293091 1730.32702393 965 1728.6875 C964.67604248 1727.55940918 964.35208496 1726.43131836 964.01831055 1725.26904297 C962.02341943 1718.36458111 959.93481095 1711.49110972 957.8125 1704.625 C952.12500266 1686.20701511 947.13630528 1667.5772108 942 1649 C941.4438478 1646.98909501 940.88769546 1644.97819006 940.33154297 1642.96728516 C939.21296515 1638.92226987 938.09467564 1634.877175 936.9765625 1630.83203125 C934.81785194 1623.022504 932.65732761 1615.21347928 930.49560547 1607.40478516 C929.52965288 1603.91527073 928.5651549 1600.42536022 927.60205078 1596.93505859 C926.55479216 1593.14100977 925.50274545 1589.34832339 924.44662476 1585.55673218 C924.07203055 1584.20892497 923.69910512 1582.8606526 923.32803345 1581.51187134 C921.57553448 1575.14514639 919.83036686 1568.97717226 917 1563 C914.66521773 1562.77211955 914.66521773 1562.77211955 912.46875 1565.37109375 Z " fill="#000000" transform="translate(375,918)"/>
<path d="M0 0 C4.455 1.98 4.455 1.98 9 4 C8.34 5.65 7.68 7.3 7 9 C5.1875 8.8125 5.1875 8.8125 3 8 C0.85802506 5.09303401 0 3.64478912 0 0 Z " fill="#000000" transform="translate(400,978)"/>
</svg>
